<?xml version="1.0" encoding="utf-8"?>
<!-- Generator: Adobe Illustrator 24.1.0, SVG Export Plug-In . SVG Version: 6.00 Build 0)  -->
<svg version="1.1" id="Layer_1" xmlns="http://www.w3.org/2000/svg" xmlns:xlink="http://www.w3.org/1999/xlink" x="0px" y="0px"
	 viewBox="0 0 1920 1080" style="enable-background:new 0 0 1920 1080;" xml:space="preserve">
<style type="text/css">
	.st0{fill:#FFFFFF;}
</style>
<g>
	<path class="st0" d="M961.5,844.9v19.6h13.9v12.2h-13.9v33.9h-12.2v-78h32.3v12.2H961.5z"/>
	<path class="st0" d="M858.6,910.6c-5.2,0-9.5-1.5-12.9-4.6c-3.7-3.7-5.6-8.6-5.6-14.6v-41.4c0-6,1.9-10.9,5.6-14.6
		c3.4-3,7.7-4.6,12.9-4.6c5.3,0,9.6,1.5,12.9,4.6c3.7,3.6,5.6,8.4,5.6,14.6v6.9h-12.2v-6.9c0-2.7-0.5-4.6-1.6-5.6
		c-1-0.9-2.5-1.3-4.7-1.3c-2.1,0-3.6,0.4-4.6,1.3c-1.1,1-1.7,2.9-1.7,5.6v41.4c0,2.7,0.6,4.5,1.7,5.6c1,0.9,2.5,1.3,4.6,1.3
		c2.2,0,3.7-0.4,4.7-1.3c1-1,1.6-2.8,1.6-5.6v-10H877v10c0,6.2-1.9,11-5.6,14.6C868.2,909.1,863.9,910.6,858.6,910.6z"/>
	<path class="st0" d="M911.1,910.6c-5.3,0-9.6-1.5-12.9-4.6c-3.7-3.6-5.6-8.4-5.6-14.6v-41.4c0-6.2,1.9-11,5.6-14.6
		c3.3-3,7.6-4.6,12.9-4.6c5.3,0,9.6,1.5,12.9,4.6c3.7,3.6,5.6,8.4,5.6,14.6v41.4c0,6.2-1.9,11-5.6,14.6
		C920.7,909.1,916.4,910.6,911.1,910.6z M911.1,843.2c-2.1,0-3.6,0.4-4.6,1.3c-1.1,1-1.7,2.9-1.7,5.6v41.4c0,2.7,0.6,4.5,1.7,5.6
		c1,0.9,2.5,1.3,4.6,1.3c2.2,0,3.7-0.4,4.6-1.3c1.1-1,1.7-2.8,1.7-5.6v-41.4c0-2.7-0.6-4.6-1.7-5.6
		C914.8,843.6,913.2,843.2,911.1,843.2z"/>
	<path class="st0" d="M1008.1,844.9v19.6h13.9v12.2h-13.9v19.2h-12.2v-63.3h32.3v12.2H1008.1z"/>
	<path class="st0" d="M1064.8,882.4v27.4h-12.4v-27.4l-15-50.5h12.9l8.2,27.9l8.5-27.9h12.9L1064.8,882.4z"/>
</g>
<g>
	<path class="st0" d="M487,146.2h94.3V174h-31.9v166.4h-30.5V174H487V146.2z"/>
	<path class="st0" d="M625.1,228h41.9v27.7h-41.9v56.8h52.7v27.7h-83.2V146.2h83.2V174h-52.7V228z"/>
	<path class="st0" d="M736.5,263l-9.4,17.7v59.6h-30.5V146.2h30.5v84h0.6l39.4-84h30.5l-42.4,86.5l42.4,107.6h-31.3L736.5,263z"/>
	<path class="st0" d="M884.9,232.5h39.4v27.7h-39.4v80.1h-30.5V146.2H935V174h-50.2V232.5z"/>
	<path class="st0" d="M949.7,146.2h30.5v194.1h-30.5V146.2z M978.3,109.4V136h-26.6v-26.6H978.3z"/>
	<path class="st0" d="M1031,276l-38.5-129.8h31.9l23,88.5h0.6l23-88.5h29.1L1061.5,276v64.3H1031V276z"/>
	<path class="st0" d="M1197.3,340.3h-30.8l-5.3-35.2h-37.4l-5.3,35.2h-28l31.1-194.1h44.6L1197.3,340.3z M1127.8,278.8h29.4
		l-14.4-98.2h-0.6L1127.8,278.8z"/>
	<path class="st0" d="M1192.1,146.2h94.3V174h-31.9v166.4H1224V174h-31.9V146.2z"/>
	<path class="st0" d="M1299.7,146.2h30.5v166.4h50.2v27.7h-80.7V146.2z"/>
	<path class="st0" d="M1393.7,146.2h30.5v194.1h-30.5V146.2z"/>
	<path class="st0" d="M359.6,505.1l-9.4,17.7v59.6h-30.5V388.4h30.5v84h0.6l39.4-84h30.5l-42.4,86.5l42.4,107.6h-31.3L359.6,505.1z"
		/>
	<path class="st0" d="M533.1,582.5h-30.8l-5.3-35.2h-37.4l-5.3,35.2h-28l31.1-194.1h44.6L533.1,582.5z M463.5,520.9h29.4l-14.4-98.2
		H478L463.5,520.9z"/>
	<path class="st0" d="M577.8,582.5h-30.5V388.4h30.5v83.2h34.7v-83.2h31.1v194.1h-31.1v-83.2h-34.7V582.5z"/>
	<path class="st0" d="M711.4,546.7h0.6l23-158.3h28l-29.9,194.1h-45.5l-29.9-194.1h30.8L711.4,546.7z"/>
	<path class="st0" d="M807.6,470.2h41.9v27.7h-41.9v56.8h52.7v27.7h-83.2V388.4h83.2v27.7h-52.7V470.2z"/>
	<path class="st0" d="M949.9,441.9h-0.6v140.6h-27.5V388.4h38.3l30.8,116.2h0.6V388.4h27.2v194.1h-31.3L949.9,441.9z"/>
	<path class="st0" d="M1038.1,435c0-31.1,16.4-48.8,46.3-48.8c29.9,0,46.3,17.7,46.3,48.8v100.9c0,31.1-16.4,48.8-46.3,48.8
		c-29.9,0-46.3-17.7-46.3-48.8V435z M1068.6,537.8c0,13.9,6.1,19.1,15.8,19.1c9.7,0,15.8-5.3,15.8-19.1V433
		c0-13.9-6.1-19.1-15.8-19.1c-9.7,0-15.8,5.3-15.8,19.1V537.8z"/>
	<path class="st0" d="M1190.3,505.1l-9.4,17.7v59.6h-30.5V388.4h30.5v84h0.6l39.4-84h30.5l-42.4,86.5l42.4,107.6h-31.3L1190.3,505.1
		z"/>
	<path class="st0" d="M1256.3,388.4h94.3v27.7h-31.9v166.4h-30.5V416.1h-31.9V388.4z"/>
	<path class="st0" d="M1452,582.5h-30.8l-5.3-35.2h-37.4l-5.3,35.2h-28l31.1-194.1h44.6L1452,582.5z M1382.4,520.9h29.4l-14.4-98.2
		h-0.6L1382.4,520.9z"/>
	<path class="st0" d="M1507.2,386.2c29.7,0,44.9,17.7,44.9,48.8v6.1h-28.8v-8c0-13.9-5.5-19.1-15.3-19.1s-15.3,5.3-15.3,19.1
		c0,14.1,6.1,24.7,26.1,42.1c25.5,22.5,33.6,38.5,33.6,60.7c0,31.1-15.5,48.8-45.5,48.8c-29.9,0-45.5-17.7-45.5-48.8V524h28.8v13.9
		c0,13.9,6.1,18.9,15.8,18.9c9.7,0,15.8-5,15.8-18.9c0-14.1-6.1-24.7-26.1-42.1c-25.5-22.5-33.6-38.5-33.6-60.7
		C1462.3,403.9,1477.5,386.2,1507.2,386.2z"/>
	<path class="st0" d="M1569.9,388.4h30.5v194.1h-30.5V388.4z"/>
</g>
<g>
	<path class="st0" d="M210.5,643.5c0-1.9,0.3-3.6,1-5.2c0.6-1.6,1.5-2.9,2.7-4.1s2.5-2.1,4.1-2.7c1.6-0.6,3.3-1,5.2-1
		c1.9,0,3.6,0.3,5.2,1c1.6,0.6,2.9,1.5,4.1,2.7s2.1,2.5,2.7,4.1c0.6,1.6,1,3.3,1,5.2c0,1.9-0.3,3.6-1,5.2c-0.6,1.6-1.5,2.9-2.7,4.1
		s-2.5,2.1-4.1,2.7s-3.3,1-5.2,1c-1.9,0-3.6-0.3-5.2-1s-2.9-1.5-4.1-2.7s-2.1-2.5-2.7-4.1C210.8,647.1,210.5,645.4,210.5,643.5z
		 M213.5,643.5c0,2,0.4,3.7,1.3,5.3c0.9,1.6,2,2.8,3.5,3.7c1.5,0.9,3.2,1.3,5.1,1.3c1.9,0,3.6-0.4,5.1-1.3s2.7-2.1,3.5-3.7
		c0.9-1.6,1.3-3.3,1.3-5.3c0-2-0.4-3.7-1.3-5.3s-2-2.8-3.5-3.7c-1.5-0.9-3.2-1.3-5.1-1.3c-1.9,0-3.6,0.4-5.1,1.3
		c-1.5,0.9-2.7,2.1-3.5,3.7S213.5,641.5,213.5,643.5z M218.3,625.5c0-0.5,0.2-0.9,0.5-1.2c0.3-0.3,0.7-0.5,1.2-0.5
		c0.5,0,0.9,0.2,1.2,0.5c0.3,0.3,0.5,0.7,0.5,1.2s-0.2,0.9-0.5,1.2c-0.3,0.3-0.7,0.5-1.2,0.5c-0.5,0-0.9-0.2-1.2-0.5
		C218.5,626.4,218.3,626,218.3,625.5z M225.3,625.5c0-0.5,0.2-0.9,0.5-1.2c0.3-0.3,0.7-0.5,1.2-0.5c0.5,0,0.9,0.2,1.2,0.5
		c0.3,0.3,0.5,0.7,0.5,1.2s-0.2,0.9-0.5,1.2c-0.3,0.3-0.7,0.5-1.2,0.5c-0.5,0-0.9-0.2-1.2-0.5C225.4,626.4,225.3,626,225.3,625.5z"
		/>
	<path class="st0" d="M243.6,653.5h9.7v2.5h-13.4v-2.2l9.3-11.9h-8.9v-2.5h12.5v2.3L243.6,653.5z"/>
	<path class="st0" d="M273.4,647.7v1.1h-14.1c0.3,1.5,1,2.7,2.1,3.6c1.1,0.9,2.5,1.4,4.1,1.4c0.9,0,1.8-0.2,2.8-0.5
		c1-0.3,1.9-0.9,2.7-1.7l1.6,2.1c-1.2,1-2.4,1.7-3.6,2.1s-2.4,0.6-3.5,0.6c-1.8,0-3.4-0.4-4.8-1.1c-1.4-0.7-2.5-1.8-3.3-3.1
		c-0.8-1.3-1.2-2.8-1.2-4.5c0-1.6,0.4-3.1,1.1-4.4c0.7-1.3,1.8-2.3,3.1-3s2.8-1.1,4.4-1.1c1.6,0,3.1,0.4,4.3,1.1s2.3,1.8,3,3.1
		C273,644.5,273.4,646,273.4,647.7z M259.3,646.4h11.3c-0.2-1.4-0.9-2.6-1.9-3.5c-1-0.9-2.2-1.4-3.7-1.4c-1.5,0-2.7,0.5-3.8,1.4
		C260.1,643.8,259.5,645,259.3,646.4z"/>
	<path class="st0" d="M277.5,656v-16.6h2.5l0.1,2.5c0.7-0.9,1.5-1.6,2.4-2.1c1-0.5,2-0.8,3.2-0.8c1.3,0,2.5,0.3,3.6,1
		c1,0.6,1.8,1.5,2.4,2.7c0.6,1.1,0.9,2.4,0.9,3.9v9.4h-2.7v-9c0-1.6-0.4-2.9-1.3-3.9s-2-1.5-3.4-1.5c-0.9,0-1.8,0.2-2.5,0.7
		c-0.7,0.5-1.3,1.1-1.8,1.9c-0.4,0.8-0.6,1.7-0.6,2.7v9.2H277.5z"/>
	<path class="st0" d="M300.4,630.4V656h-2.8v-25.6H300.4z"/>
	<path class="st0" d="M321.5,647.7v1.1h-14.1c0.3,1.5,1,2.7,2.1,3.6c1.1,0.9,2.5,1.4,4.1,1.4c0.9,0,1.8-0.2,2.8-0.5
		c1-0.3,1.9-0.9,2.7-1.7l1.6,2.1c-1.2,1-2.4,1.7-3.6,2.1s-2.4,0.6-3.5,0.6c-1.8,0-3.4-0.4-4.8-1.1c-1.4-0.7-2.5-1.8-3.3-3.1
		c-0.8-1.3-1.2-2.8-1.2-4.5c0-1.6,0.4-3.1,1.1-4.4c0.7-1.3,1.8-2.3,3.1-3s2.8-1.1,4.4-1.1c1.6,0,3.1,0.4,4.3,1.1s2.3,1.8,3,3.1
		C321.2,644.5,321.5,646,321.5,647.7z M307.4,646.4h11.3c-0.2-1.4-0.9-2.6-1.9-3.5c-1-0.9-2.2-1.4-3.7-1.4c-1.5,0-2.7,0.5-3.8,1.4
		C308.3,643.8,307.7,645,307.4,646.4z"/>
	<path class="st0" d="M333.3,654.4l1.3-2.3c1.3,1.2,2.8,1.8,4.3,1.8c0.9,0,1.6-0.2,2.1-0.6c0.5-0.4,0.7-1,0.7-1.6
		c0-0.9-0.4-1.5-1.1-2c-0.7-0.5-1.5-0.9-2.4-1.3c-0.7-0.3-1.4-0.7-2.1-1c-0.7-0.4-1.2-0.9-1.7-1.4c-0.4-0.6-0.7-1.3-0.7-2.2
		c0-1.4,0.5-2.4,1.5-3.3s2.3-1.3,3.8-1.3c0.8,0,1.6,0.1,2.5,0.3c0.8,0.2,1.5,0.6,2.2,1l-1.2,2.1c-0.7-0.3-1.2-0.6-1.7-0.7
		c-0.5-0.1-1-0.2-1.6-0.2c-0.9,0-1.5,0.2-2,0.5c-0.5,0.3-0.7,0.8-0.7,1.4c0,0.7,0.3,1.2,1,1.6c0.6,0.4,1.4,0.8,2.2,1.2
		c0.7,0.3,1.5,0.7,2.2,1.1c0.7,0.4,1.3,0.9,1.8,1.6c0.5,0.6,0.7,1.4,0.7,2.4c0,1-0.2,1.8-0.7,2.6s-1.2,1.3-2,1.7s-1.8,0.6-2.9,0.6
		c-1,0-1.9-0.2-2.9-0.5C334.9,655.5,334.1,655,333.3,654.4z"/>
	<path class="st0" d="M364.6,647.7v1.1h-14.1c0.3,1.5,1,2.7,2.1,3.6c1.1,0.9,2.5,1.4,4.1,1.4c0.9,0,1.8-0.2,2.8-0.5
		c1-0.3,1.9-0.9,2.7-1.7l1.6,2.1c-1.2,1-2.4,1.7-3.6,2.1s-2.4,0.6-3.5,0.6c-1.8,0-3.4-0.4-4.8-1.1c-1.4-0.7-2.5-1.8-3.3-3.1
		c-0.8-1.3-1.2-2.8-1.2-4.5c0-1.6,0.4-3.1,1.1-4.4c0.7-1.3,1.8-2.3,3.1-3s2.8-1.1,4.4-1.1c1.6,0,3.1,0.4,4.3,1.1s2.3,1.8,3,3.1
		C364.2,644.5,364.6,646,364.6,647.7z M350.5,646.4h11.3c-0.2-1.4-0.9-2.6-1.9-3.5c-1-0.9-2.2-1.4-3.7-1.4c-1.5,0-2.7,0.5-3.8,1.4
		C351.4,643.8,350.7,645,350.5,646.4z"/>
	<path class="st0" d="M382.4,653.9c-0.8,0.8-1.7,1.4-2.7,1.8c-1.1,0.4-2.2,0.6-3.5,0.6c-1.7,0-3.1-0.4-4.4-1.1
		c-1.3-0.7-2.3-1.8-3.1-3.1s-1.1-2.8-1.1-4.4s0.4-3.1,1.1-4.4c0.7-1.3,1.8-2.3,3.1-3.1c1.3-0.7,2.8-1.1,4.4-1.1
		c1.2,0,2.4,0.2,3.5,0.6c1.1,0.4,2,1,2.7,1.8l-1.9,1.9c-0.5-0.6-1.1-1-1.9-1.4s-1.5-0.5-2.4-0.5c-1.1,0-2.1,0.3-3,0.8
		c-0.9,0.5-1.6,1.3-2.1,2.2s-0.8,2-0.8,3.2c0,1.2,0.3,2.2,0.8,3.2s1.2,1.7,2.1,2.2c0.9,0.5,1.9,0.8,3,0.8c0.9,0,1.7-0.2,2.4-0.5
		s1.4-0.8,1.9-1.4L382.4,653.9z M371.8,662.4l0.8-1.2c0.4,0.2,0.8,0.3,1.3,0.3c0.6,0,1.1-0.2,1.6-0.5s0.6-0.7,0.6-1.2
		c0-0.5-0.2-0.8-0.6-1.1s-1-0.4-1.7-0.4l0.9-2.4h1.8l-0.6,1.5c1.5,0.4,2.3,1.3,2.3,2.6c0,0.9-0.4,1.6-1.1,2.2
		c-0.8,0.6-1.7,0.9-2.9,0.9c-0.4,0-0.9,0-1.3-0.1C372.5,662.7,372.1,662.6,371.8,662.4z"/>
	<path class="st0" d="M386,633c0-0.6,0.2-1,0.5-1.4c0.4-0.4,0.8-0.5,1.4-0.5c0.6,0,1,0.2,1.4,0.5c0.4,0.4,0.5,0.8,0.5,1.4
		c0,0.5-0.2,1-0.5,1.4s-0.8,0.5-1.4,0.5c-0.5,0-1-0.2-1.4-0.5S386,633.5,386,633z M386.6,656v-16.6h2.8V656H386.6z"/>
	<path class="st0" d="M397.4,630.4V656h-2.8v-25.6H397.4z"/>
	<path class="st0" d="M405.2,639.4l0.1,2c0.6-0.7,1.4-1.3,2.3-1.7s1.8-0.6,2.9-0.6c1.2,0,2.4,0.3,3.3,0.9c1,0.6,1.7,1.4,2.3,2.5
		c0.6-1,1.5-1.8,2.5-2.4c1-0.6,2.2-0.9,3.4-0.9c1.3,0,2.4,0.3,3.4,0.9s1.7,1.5,2.3,2.6s0.8,2.4,0.8,3.8v9.7h-2.7v-9.2
		c0-1.2-0.2-2.1-0.6-2.9s-1-1.3-1.6-1.7s-1.4-0.6-2.1-0.6c-0.7,0-1.4,0.2-2.1,0.6c-0.7,0.4-1.2,1-1.7,1.7c-0.4,0.8-0.6,1.7-0.6,2.9
		v9.2h-2.7v-9.2c0-1.2-0.2-2.1-0.6-2.9s-1-1.3-1.6-1.7s-1.4-0.6-2.1-0.6c-0.7,0-1.4,0.2-2.1,0.6s-1.2,1-1.7,1.7
		c-0.4,0.8-0.6,1.7-0.6,2.9v9.2h-2.7v-16.6H405.2z"/>
	<path class="st0" d="M433,633c0-0.6,0.2-1,0.5-1.4c0.4-0.4,0.8-0.5,1.4-0.5c0.6,0,1,0.2,1.4,0.5c0.4,0.4,0.5,0.8,0.5,1.4
		c0,0.5-0.2,1-0.5,1.4s-0.8,0.5-1.4,0.5c-0.5,0-1-0.2-1.4-0.5S433,633.5,433,633z M433.6,656v-16.6h2.8V656H433.6z"/>
	<path class="st0" d="M440.6,654.4l1.3-2.3c1.3,1.2,2.8,1.8,4.3,1.8c0.9,0,1.6-0.2,2.1-0.6c0.5-0.4,0.7-1,0.7-1.6
		c0-0.9-0.4-1.5-1.1-2c-0.7-0.5-1.5-0.9-2.4-1.3c-0.7-0.3-1.4-0.7-2.1-1c-0.7-0.4-1.2-0.9-1.7-1.4c-0.4-0.6-0.7-1.3-0.7-2.2
		c0-1.4,0.5-2.4,1.5-3.3s2.3-1.3,3.8-1.3c0.8,0,1.6,0.1,2.5,0.3c0.8,0.2,1.5,0.6,2.2,1l-1.2,2.1c-0.7-0.3-1.2-0.6-1.7-0.7
		c-0.5-0.1-1-0.2-1.6-0.2c-0.9,0-1.5,0.2-2,0.5c-0.5,0.3-0.7,0.8-0.7,1.4c0,0.7,0.3,1.2,1,1.6c0.6,0.4,1.4,0.8,2.2,1.2
		c0.7,0.3,1.5,0.7,2.2,1.1c0.7,0.4,1.3,0.9,1.8,1.6c0.5,0.6,0.7,1.4,0.7,2.4c0,1-0.2,1.8-0.7,2.6s-1.2,1.3-2,1.7s-1.8,0.6-2.9,0.6
		c-1,0-1.9-0.2-2.9-0.5C442.2,655.5,441.4,655,440.6,654.4z M443,662.4l0.8-1.2c0.4,0.2,0.8,0.3,1.3,0.3c0.6,0,1.1-0.2,1.6-0.5
		s0.6-0.7,0.6-1.2c0-0.5-0.2-0.8-0.6-1.1s-1-0.4-1.7-0.4l0.9-2.4h1.8l-0.6,1.5c1.5,0.4,2.3,1.3,2.3,2.6c0,0.9-0.4,1.6-1.1,2.2
		c-0.8,0.6-1.7,0.9-2.9,0.9c-0.4,0-0.9,0-1.3-0.1C443.7,662.7,443.3,662.6,443,662.4z"/>
	<path class="st0" d="M464.7,631.1h2.7v15.9c0.1-0.1,0.2-0.2,0.3-0.3s0.2-0.2,0.3-0.3l6-6.9h3.3l-6.5,7.5l7.5,9.1h-3.4l-5.9-7
		l-1.5,1.7v5.3h-2.7V631.1z"/>
	<path class="st0" d="M480.6,651c0-1.7,0.6-3,1.9-4c1.3-1,3-1.5,5.2-1.5c1.5,0,2.9,0.2,4.4,0.7v-0.2c0-1.4-0.4-2.5-1.2-3.3
		s-1.9-1.2-3.3-1.2c-1.4,0-3,0.5-4.6,1.4l-1-2.3c1.1-0.6,2.1-1,3-1.3c0.9-0.2,1.9-0.4,2.9-0.4c2.1,0,3.8,0.6,5.1,1.9s1.9,3,1.9,5.2
		v9.8h-2.5l-0.1-2.5c-0.6,0.9-1.3,1.6-2.3,2.1c-1,0.5-2.1,0.7-3.3,0.7c-1.8,0-3.3-0.5-4.4-1.5C481.2,653.9,480.6,652.6,480.6,651z
		 M488,648.1c-1.4,0-2.6,0.3-3.4,0.8c-0.8,0.5-1.2,1.2-1.2,2.2c0,0.8,0.3,1.5,1,2c0.6,0.5,1.5,0.8,2.6,0.8c1,0,1.8-0.2,2.6-0.6
		c0.8-0.4,1.4-1,1.8-1.7c0.5-0.7,0.7-1.5,0.7-2.3v-0.4C490.8,648.3,489.4,648.1,488,648.1z"/>
	<path class="st0" d="M499.8,656v-24.9h2.7v10.7c0.6-0.9,1.4-1.5,2.4-2s2-0.7,3.1-0.7c1.3,0,2.5,0.3,3.6,1c1,0.6,1.8,1.5,2.4,2.7
		c0.6,1.1,0.9,2.4,0.9,3.9v9.4h-2.7v-9c0-1.6-0.4-2.9-1.3-3.9s-2-1.5-3.4-1.5c-0.9,0-1.8,0.2-2.5,0.7c-0.7,0.5-1.3,1.1-1.8,1.9
		c-0.4,0.8-0.6,1.7-0.6,2.7v9.2H499.8z"/>
	<path class="st0" d="M517.6,639.4h3L525,650c0.2,0.5,0.4,0.9,0.6,1.4c0.2,0.5,0.3,1,0.5,1.4h0.1c0.1-0.5,0.3-0.9,0.5-1.4
		c0.2-0.5,0.4-1,0.6-1.5l4.4-10.6h2.9l-6.9,16.6h-3.1L517.6,639.4z"/>
	<path class="st0" d="M552.7,647.7v1.1h-14.1c0.3,1.5,1,2.7,2.1,3.6c1.1,0.9,2.5,1.4,4.1,1.4c0.9,0,1.8-0.2,2.8-0.5
		c1-0.3,1.9-0.9,2.7-1.7l1.6,2.1c-1.2,1-2.4,1.7-3.6,2.1s-2.4,0.6-3.5,0.6c-1.8,0-3.4-0.4-4.8-1.1c-1.4-0.7-2.5-1.8-3.3-3.1
		c-0.8-1.3-1.2-2.8-1.2-4.5c0-1.6,0.4-3.1,1.1-4.4c0.7-1.3,1.8-2.3,3.1-3s2.8-1.1,4.4-1.1c1.6,0,3.1,0.4,4.3,1.1s2.3,1.8,3,3.1
		C552.4,644.5,552.7,646,552.7,647.7z M538.6,646.4h11.3c-0.2-1.4-0.9-2.6-1.9-3.5c-1-0.9-2.2-1.4-3.7-1.4c-1.5,0-2.7,0.5-3.8,1.4
		C539.5,643.8,538.9,645,538.6,646.4z"/>
	<path class="st0" d="M579.2,653.9c-0.8,0.8-1.7,1.4-2.7,1.8c-1.1,0.4-2.2,0.6-3.5,0.6c-1.7,0-3.1-0.4-4.4-1.1
		c-1.3-0.7-2.3-1.8-3.1-3.1s-1.1-2.8-1.1-4.4s0.4-3.1,1.1-4.4c0.7-1.3,1.8-2.3,3.1-3.1c1.3-0.7,2.8-1.1,4.4-1.1
		c1.2,0,2.4,0.2,3.5,0.6c1.1,0.4,2,1,2.7,1.8l-1.9,1.9c-0.5-0.6-1.1-1-1.9-1.4s-1.5-0.5-2.4-0.5c-1.1,0-2.1,0.3-3,0.8
		c-0.9,0.5-1.6,1.3-2.1,2.2s-0.8,2-0.8,3.2c0,1.2,0.3,2.2,0.8,3.2s1.2,1.7,2.1,2.2c0.9,0.5,1.9,0.8,3,0.8c0.9,0,1.7-0.2,2.4-0.5
		s1.4-0.8,1.9-1.4L579.2,653.9z M568.6,662.4l0.8-1.2c0.4,0.2,0.8,0.3,1.3,0.3c0.6,0,1.1-0.2,1.6-0.5s0.6-0.7,0.6-1.2
		c0-0.5-0.2-0.8-0.6-1.1s-1-0.4-1.7-0.4l0.9-2.4h1.8l-0.6,1.5c1.5,0.4,2.3,1.3,2.3,2.6c0,0.9-0.4,1.6-1.1,2.2
		c-0.8,0.6-1.7,0.9-2.9,0.9c-0.4,0-0.9,0-1.3-0.1C569.3,662.7,568.9,662.6,568.6,662.4z"/>
	<path class="st0" d="M599.1,647.7v1.1H585c0.3,1.5,1,2.7,2.1,3.6c1.1,0.9,2.5,1.4,4.1,1.4c0.9,0,1.8-0.2,2.8-0.5
		c1-0.3,1.9-0.9,2.7-1.7l1.6,2.1c-1.2,1-2.4,1.7-3.6,2.1s-2.4,0.6-3.5,0.6c-1.8,0-3.4-0.4-4.8-1.1c-1.4-0.7-2.5-1.8-3.3-3.1
		c-0.8-1.3-1.2-2.8-1.2-4.5c0-1.6,0.4-3.1,1.1-4.4c0.7-1.3,1.8-2.3,3.1-3s2.8-1.1,4.4-1.1c1.6,0,3.1,0.4,4.3,1.1s2.3,1.8,3,3.1
		C598.8,644.5,599.1,646,599.1,647.7z M585,646.4h11.3c-0.2-1.4-0.9-2.6-1.9-3.5c-1-0.9-2.2-1.4-3.7-1.4c-1.5,0-2.7,0.5-3.8,1.4
		C585.9,643.8,585.3,645,585,646.4z"/>
	<path class="st0" d="M603.3,631.1h2.7v15.9c0.1-0.1,0.2-0.2,0.3-0.3s0.2-0.2,0.3-0.3l6-6.9h3.3l-6.5,7.5l7.5,9.1h-3.4l-5.9-7
		l-1.5,1.7v5.3h-2.7V631.1z"/>
	<path class="st0" d="M619.6,633c0-0.6,0.2-1,0.5-1.4c0.4-0.4,0.8-0.5,1.4-0.5c0.6,0,1,0.2,1.4,0.5c0.4,0.4,0.5,0.8,0.5,1.4
		c0,0.5-0.2,1-0.5,1.4s-0.8,0.5-1.4,0.5c-0.5,0-1-0.2-1.4-0.5S619.6,633.5,619.6,633z M620.2,656v-16.6h2.8V656H620.2z"/>
	<path class="st0" d="M628.2,656v-16.6h2.5l0.2,2.6c0.6-0.9,1.3-1.6,2.1-2.1c0.9-0.5,1.9-0.8,3.1-0.8c0.5,0,1,0,1.6,0.1l-0.4,2.5
		c-0.5-0.1-1.1-0.2-1.5-0.2c-1.5,0-2.7,0.6-3.6,1.7c-0.8,1.1-1.3,2.5-1.3,4.2v8.6H628.2z"/>
	<path class="st0" d="M647.8,639c1.2,0,2.3,0.2,3.4,0.7c1,0.4,1.9,1.1,2.7,1.8v-10.5h2.7V656h-2.5l-0.1-2.3
		c-0.7,0.8-1.6,1.5-2.7,1.9c-1.1,0.5-2.2,0.7-3.5,0.7c-1.6,0-3-0.4-4.3-1.1c-1.3-0.7-2.3-1.8-3-3.1s-1.1-2.8-1.1-4.4
		s0.4-3.1,1.1-4.4c0.7-1.3,1.7-2.3,3-3.1C644.7,639.4,646.2,639,647.8,639z M642.2,647.7c0,1.2,0.3,2.2,0.8,3.2s1.2,1.7,2.1,2.2
		c0.9,0.5,1.9,0.8,3,0.8c1.1,0,2.1-0.3,3-0.8c0.9-0.5,1.6-1.3,2.1-2.2s0.8-2,0.8-3.2c0-1.2-0.3-2.2-0.8-3.2s-1.2-1.7-2.1-2.2
		c-0.9-0.5-1.9-0.8-3-0.8c-1.1,0-2.1,0.3-3,0.8c-0.9,0.5-1.6,1.3-2.1,2.2S642.2,646.5,642.2,647.7z"/>
	<path class="st0" d="M677.7,647.7v1.1h-14.1c0.3,1.5,1,2.7,2.1,3.6c1.1,0.9,2.5,1.4,4.1,1.4c0.9,0,1.8-0.2,2.8-0.5
		c1-0.3,1.9-0.9,2.7-1.7l1.6,2.1c-1.2,1-2.4,1.7-3.6,2.1s-2.4,0.6-3.5,0.6c-1.8,0-3.4-0.4-4.8-1.1c-1.4-0.7-2.5-1.8-3.3-3.1
		c-0.8-1.3-1.2-2.8-1.2-4.5c0-1.6,0.4-3.1,1.1-4.4c0.7-1.3,1.8-2.3,3.1-3s2.8-1.1,4.4-1.1c1.6,0,3.1,0.4,4.3,1.1s2.3,1.8,3,3.1
		C677.3,644.5,677.7,646,677.7,647.7z M663.6,646.4h11.3c-0.2-1.4-0.9-2.6-1.9-3.5c-1-0.9-2.2-1.4-3.7-1.4c-1.5,0-2.7,0.5-3.8,1.4
		C664.5,643.8,663.8,645,663.6,646.4z"/>
	<path class="st0" d="M681.8,631.1h2.7v15.9c0.1-0.1,0.2-0.2,0.3-0.3s0.2-0.2,0.3-0.3l6-6.9h3.3l-6.5,7.5l7.5,9.1H692l-5.9-7
		l-1.5,1.7v5.3h-2.7V631.1z"/>
	<path class="st0" d="M701.6,630.4V656h-2.8v-25.6H701.6z"/>
	<path class="st0" d="M722.7,647.7v1.1h-14.1c0.3,1.5,1,2.7,2.1,3.6c1.1,0.9,2.5,1.4,4.1,1.4c0.9,0,1.8-0.2,2.8-0.5
		c1-0.3,1.9-0.9,2.7-1.7l1.6,2.1c-1.2,1-2.4,1.7-3.6,2.1s-2.4,0.6-3.5,0.6c-1.8,0-3.4-0.4-4.8-1.1c-1.4-0.7-2.5-1.8-3.3-3.1
		c-0.8-1.3-1.2-2.8-1.2-4.5c0-1.6,0.4-3.1,1.1-4.4c0.7-1.3,1.8-2.3,3.1-3s2.8-1.1,4.4-1.1c1.6,0,3.1,0.4,4.3,1.1s2.3,1.8,3,3.1
		C722.3,644.5,722.7,646,722.7,647.7z M708.6,646.4h11.3c-0.2-1.4-0.9-2.6-1.9-3.5c-1-0.9-2.2-1.4-3.7-1.4c-1.5,0-2.7,0.5-3.8,1.4
		C709.4,643.8,708.8,645,708.6,646.4z"/>
	<path class="st0" d="M726.8,656v-16.6h2.5l0.2,2.6c0.6-0.9,1.3-1.6,2.1-2.1c0.9-0.5,1.9-0.8,3.1-0.8c0.5,0,1,0,1.6,0.1l-0.4,2.5
		c-0.5-0.1-1.1-0.2-1.5-0.2c-1.5,0-2.7,0.6-3.6,1.7c-0.8,1.1-1.3,2.5-1.3,4.2v8.6H726.8z"/>
	<path class="st0" d="M738.6,633c0-0.6,0.2-1,0.5-1.4c0.4-0.4,0.8-0.5,1.4-0.5c0.6,0,1,0.2,1.4,0.5c0.4,0.4,0.5,0.8,0.5,1.4
		c0,0.5-0.2,1-0.5,1.4s-0.8,0.5-1.4,0.5c-0.5,0-1-0.2-1.4-0.5S738.6,633.5,738.6,633z M739.1,656v-16.6h2.8V656H739.1z"/>
	<path class="st0" d="M747.9,652.2h2.7l-2.6,7.5h-1.8L747.9,652.2z"/>
	<path class="st0" d="M766,639.4v9c0,1.6,0.4,2.9,1.3,3.9s2,1.5,3.4,1.5c0.9,0,1.8-0.2,2.5-0.7c0.7-0.5,1.3-1.1,1.8-1.9
		s0.6-1.7,0.6-2.7v-9.2h2.7V656h-2.5l-0.1-2.5c-0.6,0.9-1.4,1.6-2.4,2.1c-1,0.5-2,0.8-3.2,0.8c-1.3,0-2.5-0.3-3.6-1
		c-1-0.6-1.8-1.5-2.4-2.7c-0.6-1.1-0.9-2.4-0.9-3.9v-9.4H766z"/>
	<path class="st0" d="M782.7,654.4l1.3-2.3c1.3,1.2,2.8,1.8,4.3,1.8c0.9,0,1.6-0.2,2.1-0.6c0.5-0.4,0.7-1,0.7-1.6
		c0-0.9-0.4-1.5-1.1-2c-0.7-0.5-1.5-0.9-2.4-1.3c-0.7-0.3-1.4-0.7-2.1-1c-0.7-0.4-1.2-0.9-1.7-1.4c-0.4-0.6-0.7-1.3-0.7-2.2
		c0-1.4,0.5-2.4,1.5-3.3s2.3-1.3,3.8-1.3c0.8,0,1.6,0.1,2.5,0.3c0.8,0.2,1.5,0.6,2.2,1l-1.2,2.1c-0.7-0.3-1.2-0.6-1.7-0.7
		c-0.5-0.1-1-0.2-1.6-0.2c-0.9,0-1.5,0.2-2,0.5c-0.5,0.3-0.7,0.8-0.7,1.4c0,0.7,0.3,1.2,1,1.6c0.6,0.4,1.4,0.8,2.2,1.2
		c0.7,0.3,1.5,0.7,2.2,1.1c0.7,0.4,1.3,0.9,1.8,1.6c0.5,0.6,0.7,1.4,0.7,2.4c0,1-0.2,1.8-0.7,2.6s-1.2,1.3-2,1.7s-1.8,0.6-2.9,0.6
		c-1,0-1.9-0.2-2.9-0.5C784.3,655.5,783.4,655,782.7,654.4z"/>
	<path class="st0" d="M799.7,639.4v-4.2h2.7v4.2h4.5v2.5h-4.5v8.9c0,2,0.9,3.1,2.8,3.1c0.3,0,0.6,0,0.9-0.1c0.3-0.1,0.6-0.1,0.9-0.3
		v2.4c-0.3,0.1-0.6,0.2-1,0.3c-0.4,0.1-0.8,0.1-1.4,0.1c-1.6,0-2.8-0.5-3.6-1.4s-1.3-2.2-1.3-3.9v-9.1h-2.7v-2.5H799.7z"/>
	<path class="st0" d="M810.7,651c0-1.7,0.6-3,1.9-4c1.3-1,3-1.5,5.2-1.5c1.5,0,2.9,0.2,4.4,0.7v-0.2c0-1.4-0.4-2.5-1.2-3.3
		s-1.9-1.2-3.3-1.2c-1.4,0-3,0.5-4.6,1.4l-1-2.3c1.1-0.6,2.1-1,3-1.3c0.9-0.2,1.9-0.4,2.9-0.4c2.1,0,3.8,0.6,5.1,1.9s1.9,3,1.9,5.2
		v9.8h-2.5l-0.1-2.5c-0.6,0.9-1.3,1.6-2.3,2.1c-1,0.5-2.1,0.7-3.3,0.7c-1.8,0-3.3-0.5-4.4-1.5C811.3,653.9,810.7,652.6,810.7,651z
		 M818.1,648.1c-1.4,0-2.6,0.3-3.4,0.8c-0.8,0.5-1.2,1.2-1.2,2.2c0,0.8,0.3,1.5,1,2c0.6,0.5,1.5,0.8,2.6,0.8c1,0,1.8-0.2,2.6-0.6
		c0.8-0.4,1.4-1,1.8-1.7c0.5-0.7,0.7-1.5,0.7-2.3v-0.4C820.9,648.3,819.5,648.1,818.1,648.1z"/>
	<path class="st0" d="M832.8,630.4V656H830v-25.6H832.8z"/>
	<path class="st0" d="M838.1,656v-16.6h2.7V656H838.1z"/>
	<path class="st0" d="M846.2,631.1h2.7v15.9c0.1-0.1,0.2-0.2,0.3-0.3s0.2-0.2,0.3-0.3l6-6.9h3.3l-6.5,7.5l7.5,9.1h-3.4l-5.9-7
		l-1.5,1.7v5.3h-2.7V631.1z"/>
	<path class="st0" d="M865.9,630.4V656h-2.8v-25.6H865.9z"/>
	<path class="st0" d="M870.7,651c0-1.7,0.6-3,1.9-4c1.3-1,3-1.5,5.2-1.5c1.5,0,2.9,0.2,4.4,0.7v-0.2c0-1.4-0.4-2.5-1.2-3.3
		s-1.9-1.2-3.3-1.2c-1.4,0-3,0.5-4.6,1.4l-1-2.3c1.1-0.6,2.1-1,3-1.3c0.9-0.2,1.9-0.4,2.9-0.4c2.1,0,3.8,0.6,5.1,1.9s1.9,3,1.9,5.2
		v9.8h-2.5l-0.1-2.5c-0.6,0.9-1.3,1.6-2.3,2.1c-1,0.5-2.1,0.7-3.3,0.7c-1.8,0-3.3-0.5-4.4-1.5C871.2,653.9,870.7,652.6,870.7,651z
		 M878.1,648.1c-1.4,0-2.6,0.3-3.4,0.8c-0.8,0.5-1.2,1.2-1.2,2.2c0,0.8,0.3,1.5,1,2c0.6,0.5,1.5,0.8,2.6,0.8c1,0,1.8-0.2,2.6-0.6
		c0.8-0.4,1.4-1,1.8-1.7c0.5-0.7,0.7-1.5,0.7-2.3v-0.4C880.8,648.3,879.5,648.1,878.1,648.1z"/>
	<path class="st0" d="M898.5,656v-24.9h2.7v10.7c0.6-0.9,1.4-1.5,2.4-2s2-0.7,3.1-0.7c1.3,0,2.5,0.3,3.6,1c1,0.6,1.8,1.5,2.4,2.7
		c0.6,1.1,0.9,2.4,0.9,3.9v9.4h-2.7v-9c0-1.6-0.4-2.9-1.3-3.9s-2-1.5-3.4-1.5c-0.9,0-1.8,0.2-2.5,0.7c-0.7,0.5-1.3,1.1-1.8,1.9
		c-0.4,0.8-0.6,1.7-0.6,2.7v9.2H898.5z"/>
	<path class="st0" d="M918.1,651c0-1.7,0.6-3,1.9-4c1.3-1,3-1.5,5.2-1.5c1.5,0,2.9,0.2,4.4,0.7v-0.2c0-1.4-0.4-2.5-1.2-3.3
		s-1.9-1.2-3.3-1.2c-1.4,0-3,0.5-4.6,1.4l-1-2.3c1.1-0.6,2.1-1,3-1.3c0.9-0.2,1.9-0.4,2.9-0.4c2.1,0,3.8,0.6,5.1,1.9s1.9,3,1.9,5.2
		v9.8h-2.5l-0.1-2.5c-0.6,0.9-1.3,1.6-2.3,2.1c-1,0.5-2.1,0.7-3.3,0.7c-1.8,0-3.3-0.5-4.4-1.5C918.7,653.9,918.1,652.6,918.1,651z
		 M925.5,648.1c-1.4,0-2.6,0.3-3.4,0.8c-0.8,0.5-1.2,1.2-1.2,2.2c0,0.8,0.3,1.5,1,2c0.6,0.5,1.5,0.8,2.6,0.8c1,0,1.8-0.2,2.6-0.6
		c0.8-0.4,1.4-1,1.8-1.7c0.5-0.7,0.7-1.5,0.7-2.3v-0.4C928.3,648.3,926.9,648.1,925.5,648.1z"/>
	<path class="st0" d="M937.3,656v-16.6h2.5l0.2,2.6c0.6-0.9,1.3-1.6,2.1-2.1c0.9-0.5,1.9-0.8,3.1-0.8c0.5,0,1,0,1.6,0.1l-0.4,2.5
		c-0.5-0.1-1.1-0.2-1.5-0.2c-1.5,0-2.7,0.6-3.6,1.7c-0.8,1.1-1.3,2.5-1.3,4.2v8.6H937.3z"/>
	<path class="st0" d="M952.1,639.4l0.1,2c0.6-0.7,1.4-1.3,2.3-1.7s1.8-0.6,2.9-0.6c1.2,0,2.4,0.3,3.3,0.9c1,0.6,1.7,1.4,2.3,2.5
		c0.6-1,1.5-1.8,2.5-2.4c1-0.6,2.2-0.9,3.4-0.9c1.3,0,2.4,0.3,3.4,0.9s1.7,1.5,2.3,2.6s0.8,2.4,0.8,3.8v9.7h-2.7v-9.2
		c0-1.2-0.2-2.1-0.6-2.9s-1-1.3-1.6-1.7s-1.4-0.6-2.1-0.6c-0.7,0-1.4,0.2-2.1,0.6c-0.7,0.4-1.2,1-1.7,1.7c-0.4,0.8-0.6,1.7-0.6,2.9
		v9.2h-2.7v-9.2c0-1.2-0.2-2.1-0.6-2.9s-1-1.3-1.6-1.7s-1.4-0.6-2.1-0.6c-0.7,0-1.4,0.2-2.1,0.6s-1.2,1-1.7,1.7
		c-0.4,0.8-0.6,1.7-0.6,2.9v9.2h-2.7v-16.6H952.1z"/>
	<path class="st0" d="M979.9,651c0-1.7,0.6-3,1.9-4c1.3-1,3-1.5,5.2-1.5c1.5,0,2.9,0.2,4.4,0.7v-0.2c0-1.4-0.4-2.5-1.2-3.3
		s-1.9-1.2-3.3-1.2c-1.4,0-3,0.5-4.6,1.4l-1-2.3c1.1-0.6,2.1-1,3-1.3c0.9-0.2,1.9-0.4,2.9-0.4c2.1,0,3.8,0.6,5.1,1.9s1.9,3,1.9,5.2
		v9.8h-2.5l-0.1-2.5c-0.6,0.9-1.3,1.6-2.3,2.1c-1,0.5-2.1,0.7-3.3,0.7c-1.8,0-3.3-0.5-4.4-1.5C980.5,653.9,979.9,652.6,979.9,651z
		 M987.3,648.1c-1.4,0-2.6,0.3-3.4,0.8c-0.8,0.5-1.2,1.2-1.2,2.2c0,0.8,0.3,1.5,1,2c0.6,0.5,1.5,0.8,2.6,0.8c1,0,1.8-0.2,2.6-0.6
		c0.8-0.4,1.4-1,1.8-1.7c0.5-0.7,0.7-1.5,0.7-2.3v-0.4C990.1,648.3,988.7,648.1,987.3,648.1z"/>
	<path class="st0" d="M999.1,656v-16.6h2.5l0.1,2.5c0.7-0.9,1.5-1.6,2.4-2.1c1-0.5,2-0.8,3.2-0.8c1.3,0,2.5,0.3,3.6,1
		c1,0.6,1.8,1.5,2.4,2.7c0.6,1.1,0.9,2.4,0.9,3.9v9.4h-2.7v-9c0-1.6-0.4-2.9-1.3-3.9s-2-1.5-3.4-1.5c-0.9,0-1.8,0.2-2.5,0.7
		c-0.7,0.5-1.3,1.1-1.8,1.9c-0.4,0.8-0.6,1.7-0.6,2.7v9.2H999.1z"/>
	<path class="st0" d="M1022,630.4V656h-2.8v-25.6H1022z"/>
	<path class="st0" d="M1026.8,651c0-1.7,0.6-3,1.9-4c1.3-1,3-1.5,5.2-1.5c1.5,0,2.9,0.2,4.4,0.7v-0.2c0-1.4-0.4-2.5-1.2-3.3
		s-1.9-1.2-3.3-1.2c-1.4,0-3,0.5-4.6,1.4l-1-2.3c1.1-0.6,2.1-1,3-1.3c0.9-0.2,1.9-0.4,2.9-0.4c2.1,0,3.8,0.6,5.1,1.9s1.9,3,1.9,5.2
		v9.8h-2.5l-0.1-2.5c-0.6,0.9-1.3,1.6-2.3,2.1c-1,0.5-2.1,0.7-3.3,0.7c-1.8,0-3.3-0.5-4.4-1.5C1027.4,653.9,1026.8,652.6,1026.8,651
		z M1034.2,648.1c-1.4,0-2.6,0.3-3.4,0.8c-0.8,0.5-1.2,1.2-1.2,2.2c0,0.8,0.3,1.5,1,2c0.6,0.5,1.5,0.8,2.6,0.8c1,0,1.8-0.2,2.6-0.6
		c0.8-0.4,1.4-1,1.8-1.7c0.5-0.7,0.7-1.5,0.7-2.3v-0.4C1037,648.3,1035.6,648.1,1034.2,648.1z"/>
	<path class="st0" d="M1046.1,656v-16.6h2.5l0.1,2.5c0.7-0.9,1.5-1.6,2.4-2.1c1-0.5,2-0.8,3.2-0.8c1.3,0,2.5,0.3,3.6,1
		c1,0.6,1.8,1.5,2.4,2.7c0.6,1.1,0.9,2.4,0.9,3.9v9.4h-2.7v-9c0-1.6-0.4-2.9-1.3-3.9s-2-1.5-3.4-1.5c-0.9,0-1.8,0.2-2.5,0.7
		c-0.7,0.5-1.3,1.1-1.8,1.9c-0.4,0.8-0.6,1.7-0.6,2.7v9.2H1046.1z"/>
	<path class="st0" d="M1068.6,639.4l0.1,2c0.6-0.7,1.4-1.3,2.3-1.7s1.8-0.6,2.9-0.6c1.2,0,2.4,0.3,3.3,0.9c1,0.6,1.7,1.4,2.3,2.5
		c0.6-1,1.5-1.8,2.5-2.4c1-0.6,2.2-0.9,3.4-0.9c1.3,0,2.4,0.3,3.4,0.9s1.7,1.5,2.3,2.6s0.8,2.4,0.8,3.8v9.7h-2.7v-9.2
		c0-1.2-0.2-2.1-0.6-2.9s-1-1.3-1.6-1.7s-1.4-0.6-2.1-0.6c-0.7,0-1.4,0.2-2.1,0.6c-0.7,0.4-1.2,1-1.7,1.7c-0.4,0.8-0.6,1.7-0.6,2.9
		v9.2h-2.7v-9.2c0-1.2-0.2-2.1-0.6-2.9s-1-1.3-1.6-1.7s-1.4-0.6-2.1-0.6c-0.7,0-1.4,0.2-2.1,0.6s-1.2,1-1.7,1.7
		c-0.4,0.8-0.6,1.7-0.6,2.9v9.2h-2.7v-16.6H1068.6z"/>
	<path class="st0" d="M1097,656v-16.6h2.7V656H1097z"/>
	<path class="st0" d="M1104,654.4l1.3-2.3c1.3,1.2,2.8,1.8,4.3,1.8c0.9,0,1.6-0.2,2.1-0.6c0.5-0.4,0.7-1,0.7-1.6
		c0-0.9-0.4-1.5-1.1-2c-0.7-0.5-1.5-0.9-2.4-1.3c-0.7-0.3-1.4-0.7-2.1-1c-0.7-0.4-1.2-0.9-1.7-1.4c-0.4-0.6-0.7-1.3-0.7-2.2
		c0-1.4,0.5-2.4,1.5-3.3s2.3-1.3,3.8-1.3c0.8,0,1.6,0.1,2.5,0.3c0.8,0.2,1.5,0.6,2.2,1l-1.2,2.1c-0.7-0.3-1.2-0.6-1.7-0.7
		c-0.5-0.1-1-0.2-1.6-0.2c-0.9,0-1.5,0.2-2,0.5c-0.5,0.3-0.7,0.8-0.7,1.4c0,0.7,0.3,1.2,1,1.6c0.6,0.4,1.4,0.8,2.2,1.2
		c0.7,0.3,1.5,0.7,2.2,1.1c0.7,0.4,1.3,0.9,1.8,1.6c0.5,0.6,0.7,1.4,0.7,2.4c0,1-0.2,1.8-0.7,2.6s-1.2,1.3-2,1.7s-1.8,0.6-2.9,0.6
		c-1,0-1.9-0.2-2.9-0.5C1105.6,655.5,1104.8,655,1104,654.4z M1106.4,662.4l0.8-1.2c0.4,0.2,0.8,0.3,1.3,0.3c0.6,0,1.1-0.2,1.6-0.5
		s0.6-0.7,0.6-1.2c0-0.5-0.2-0.8-0.6-1.1s-1-0.4-1.7-0.4l0.9-2.4h1.8l-0.6,1.5c1.5,0.4,2.3,1.3,2.3,2.6c0,0.9-0.4,1.6-1.1,2.2
		c-0.8,0.6-1.7,0.9-2.9,0.9c-0.4,0-0.9,0-1.3-0.1C1107.1,662.7,1106.7,662.6,1106.4,662.4z"/>
	<path class="st0" d="M1126.9,647.7c0-1.7,0.4-3.1,1.1-4.4c0.7-1.3,1.8-2.3,3.1-3.1c1.3-0.7,2.8-1.1,4.4-1.1s3.1,0.4,4.4,1.1
		c1.3,0.7,2.3,1.8,3.1,3.1c0.7,1.3,1.1,2.8,1.1,4.4s-0.4,3.1-1.1,4.4s-1.8,2.3-3.1,3.1c-1.3,0.7-2.8,1.1-4.4,1.1s-3.1-0.4-4.4-1.1
		c-1.3-0.7-2.3-1.8-3.1-3.1S1126.9,649.3,1126.9,647.7z M1129.8,647.7c0,1.2,0.3,2.2,0.8,3.2s1.2,1.7,2.1,2.2c0.9,0.5,1.9,0.8,3,0.8
		c1.1,0,2.1-0.3,3-0.8c0.9-0.5,1.6-1.3,2.1-2.2s0.8-2,0.8-3.2c0-1.2-0.3-2.2-0.8-3.2s-1.2-1.7-2.1-2.2c-0.9-0.5-1.9-0.8-3-0.8
		c-1.1,0-2.1,0.3-3,0.8c-0.9,0.5-1.6,1.3-2.1,2.2S1129.8,646.5,1129.8,647.7z M1130.4,633.8c0-0.5,0.2-0.9,0.5-1.2
		c0.3-0.3,0.7-0.5,1.2-0.5c0.5,0,0.9,0.2,1.2,0.5c0.3,0.3,0.5,0.7,0.5,1.2s-0.2,0.9-0.5,1.2c-0.3,0.3-0.7,0.5-1.2,0.5
		c-0.5,0-0.9-0.2-1.2-0.5C1130.6,634.7,1130.4,634.3,1130.4,633.8z M1137.4,633.8c0-0.5,0.2-0.9,0.5-1.2c0.3-0.3,0.7-0.5,1.2-0.5
		c0.5,0,0.9,0.2,1.2,0.5c0.3,0.3,0.5,0.7,0.5,1.2s-0.2,0.9-0.5,1.2c-0.3,0.3-0.7,0.5-1.2,0.5c-0.5,0-0.9-0.2-1.2-0.5
		C1137.6,634.7,1137.4,634.3,1137.4,633.8z"/>
	<path class="st0" d="M1151.5,653.5h9.7v2.5h-13.4v-2.2l9.3-11.9h-8.9v-2.5h12.5v2.3L1151.5,653.5z"/>
	<path class="st0" d="M1181.3,647.7v1.1h-14.1c0.3,1.5,1,2.7,2.1,3.6c1.1,0.9,2.5,1.4,4.1,1.4c0.9,0,1.8-0.2,2.8-0.5
		c1-0.3,1.9-0.9,2.7-1.7l1.6,2.1c-1.2,1-2.4,1.7-3.6,2.1s-2.4,0.6-3.5,0.6c-1.8,0-3.4-0.4-4.8-1.1c-1.4-0.7-2.5-1.8-3.3-3.1
		c-0.8-1.3-1.2-2.8-1.2-4.5c0-1.6,0.4-3.1,1.1-4.4c0.7-1.3,1.8-2.3,3.1-3s2.8-1.1,4.4-1.1c1.6,0,3.1,0.4,4.3,1.1s2.3,1.8,3,3.1
		C1181,644.5,1181.3,646,1181.3,647.7z M1167.2,646.4h11.3c-0.2-1.4-0.9-2.6-1.9-3.5c-1-0.9-2.2-1.4-3.7-1.4c-1.5,0-2.7,0.5-3.8,1.4
		C1168.1,643.8,1167.5,645,1167.2,646.4z"/>
	<path class="st0" d="M1188.3,630.4V656h-2.8v-25.6H1188.3z"/>
	<path class="st0" d="M1205.1,630.4V656h-2.8v-25.6H1205.1z"/>
	<path class="st0" d="M1226.2,647.7v1.1h-14.1c0.3,1.5,1,2.7,2.1,3.6c1.1,0.9,2.5,1.4,4.1,1.4c0.9,0,1.8-0.2,2.8-0.5
		c1-0.3,1.9-0.9,2.7-1.7l1.6,2.1c-1.2,1-2.4,1.7-3.6,2.1s-2.4,0.6-3.5,0.6c-1.8,0-3.4-0.4-4.8-1.1c-1.4-0.7-2.5-1.8-3.3-3.1
		c-0.8-1.3-1.2-2.8-1.2-4.5c0-1.6,0.4-3.1,1.1-4.4c0.7-1.3,1.8-2.3,3.1-3s2.8-1.1,4.4-1.1c1.6,0,3.1,0.4,4.3,1.1s2.3,1.8,3,3.1
		C1225.8,644.5,1226.2,646,1226.2,647.7z M1212.1,646.4h11.3c-0.2-1.4-0.9-2.6-1.9-3.5c-1-0.9-2.2-1.4-3.7-1.4
		c-1.5,0-2.7,0.5-3.8,1.4C1213,643.8,1212.3,645,1212.1,646.4z"/>
	<path class="st0" d="M1233.5,653.5h9.7v2.5h-13.4v-2.2l9.3-11.9h-8.9v-2.5h12.5v2.3L1233.5,653.5z"/>
	<path class="st0" d="M1250.2,653.5h9.7v2.5h-13.4v-2.2l9.3-11.9h-8.9v-2.5h12.5v2.3L1250.2,653.5z"/>
	<path class="st0" d="M1280,647.7v1.1h-14.1c0.3,1.5,1,2.7,2.1,3.6c1.1,0.9,2.5,1.4,4.1,1.4c0.9,0,1.8-0.2,2.8-0.5
		c1-0.3,1.9-0.9,2.7-1.7l1.6,2.1c-1.2,1-2.4,1.7-3.6,2.1s-2.4,0.6-3.5,0.6c-1.8,0-3.4-0.4-4.8-1.1c-1.4-0.7-2.5-1.8-3.3-3.1
		c-0.8-1.3-1.2-2.8-1.2-4.5c0-1.6,0.4-3.1,1.1-4.4c0.7-1.3,1.8-2.3,3.1-3s2.8-1.1,4.4-1.1c1.6,0,3.1,0.4,4.3,1.1s2.3,1.8,3,3.1
		C1279.7,644.5,1280,646,1280,647.7z M1265.9,646.4h11.3c-0.2-1.4-0.9-2.6-1.9-3.5c-1-0.9-2.2-1.4-3.7-1.4c-1.5,0-2.7,0.5-3.8,1.4
		C1266.8,643.8,1266.2,645,1265.9,646.4z"/>
	<path class="st0" d="M1285.4,639.4v-4.2h2.7v4.2h4.5v2.5h-4.5v8.9c0,2,0.9,3.1,2.8,3.1c0.3,0,0.6,0,0.9-0.1
		c0.3-0.1,0.6-0.1,0.9-0.3v2.4c-0.3,0.1-0.6,0.2-1,0.3c-0.4,0.1-0.8,0.1-1.4,0.1c-1.6,0-2.8-0.5-3.6-1.4s-1.3-2.2-1.3-3.9v-9.1h-2.7
		v-2.5H1285.4z"/>
	<path class="st0" d="M1296.3,633c0-0.6,0.2-1,0.5-1.4c0.4-0.4,0.8-0.5,1.4-0.5c0.6,0,1,0.2,1.4,0.5c0.4,0.4,0.5,0.8,0.5,1.4
		c0,0.5-0.2,1-0.5,1.4s-0.8,0.5-1.4,0.5c-0.5,0-1-0.2-1.4-0.5S1296.3,633.5,1296.3,633z M1296.8,656v-16.6h2.8V656H1296.8z"/>
	<path class="st0" d="M1303.7,639.4h3l4.4,10.7c0.2,0.5,0.4,0.9,0.6,1.4c0.2,0.5,0.3,1,0.5,1.4h0.1c0.1-0.5,0.3-0.9,0.5-1.4
		c0.2-0.5,0.4-1,0.6-1.5l4.4-10.6h2.9l-10.3,24.9h-2.9l3.4-8.3L1303.7,639.4z"/>
	<path class="st0" d="M1326.5,630.4V656h-2.8v-25.6H1326.5z"/>
	<path class="st0" d="M1347.7,647.7v1.1h-14.1c0.3,1.5,1,2.7,2.1,3.6c1.1,0.9,2.5,1.4,4.1,1.4c0.9,0,1.8-0.2,2.8-0.5
		c1-0.3,1.9-0.9,2.7-1.7l1.6,2.1c-1.2,1-2.4,1.7-3.6,2.1s-2.4,0.6-3.5,0.6c-1.8,0-3.4-0.4-4.8-1.1c-1.4-0.7-2.5-1.8-3.3-3.1
		c-0.8-1.3-1.2-2.8-1.2-4.5c0-1.6,0.4-3.1,1.1-4.4c0.7-1.3,1.8-2.3,3.1-3s2.8-1.1,4.4-1.1c1.6,0,3.1,0.4,4.3,1.1s2.3,1.8,3,3.1
		C1347.3,644.5,1347.7,646,1347.7,647.7z M1333.5,646.4h11.3c-0.2-1.4-0.9-2.6-1.9-3.5c-1-0.9-2.2-1.4-3.7-1.4
		c-1.5,0-2.7,0.5-3.8,1.4C1334.4,643.8,1333.8,645,1333.5,646.4z"/>
	<path class="st0" d="M1376.2,647.7v1.1h-14.1c0.3,1.5,1,2.7,2.1,3.6c1.1,0.9,2.5,1.4,4.1,1.4c0.9,0,1.8-0.2,2.8-0.5
		c1-0.3,1.9-0.9,2.7-1.7l1.6,2.1c-1.2,1-2.4,1.7-3.6,2.1s-2.4,0.6-3.5,0.6c-1.8,0-3.4-0.4-4.8-1.1c-1.4-0.7-2.5-1.8-3.3-3.1
		c-0.8-1.3-1.2-2.8-1.2-4.5c0-1.6,0.4-3.1,1.1-4.4c0.7-1.3,1.8-2.3,3.1-3s2.8-1.1,4.4-1.1c1.6,0,3.1,0.4,4.3,1.1s2.3,1.8,3,3.1
		C1375.9,644.5,1376.2,646,1376.2,647.7z M1362.1,646.4h11.3c-0.2-1.4-0.9-2.6-1.9-3.5c-1-0.9-2.2-1.4-3.7-1.4
		c-1.5,0-2.7,0.5-3.8,1.4C1363,643.8,1362.4,645,1362.1,646.4z"/>
	<path class="st0" d="M1379.4,654.4l1.3-2.3c1.3,1.2,2.8,1.8,4.3,1.8c0.9,0,1.6-0.2,2.1-0.6c0.5-0.4,0.7-1,0.7-1.6
		c0-0.9-0.4-1.5-1.1-2c-0.7-0.5-1.5-0.9-2.4-1.3c-0.7-0.3-1.4-0.7-2.1-1c-0.7-0.4-1.2-0.9-1.7-1.4c-0.4-0.6-0.7-1.3-0.7-2.2
		c0-1.4,0.5-2.4,1.5-3.3s2.3-1.3,3.8-1.3c0.8,0,1.6,0.1,2.5,0.3c0.8,0.2,1.5,0.6,2.2,1l-1.2,2.1c-0.7-0.3-1.2-0.6-1.7-0.7
		c-0.5-0.1-1-0.2-1.6-0.2c-0.9,0-1.5,0.2-2,0.5c-0.5,0.3-0.7,0.8-0.7,1.4c0,0.7,0.3,1.2,1,1.6c0.6,0.4,1.4,0.8,2.2,1.2
		c0.7,0.3,1.5,0.7,2.2,1.1c0.7,0.4,1.3,0.9,1.8,1.6c0.5,0.6,0.7,1.4,0.7,2.4c0,1-0.2,1.8-0.7,2.6s-1.2,1.3-2,1.7s-1.8,0.6-2.9,0.6
		c-1,0-1.9-0.2-2.9-0.5C1381,655.5,1380.1,655,1379.4,654.4z M1381.8,662.4l0.8-1.2c0.4,0.2,0.8,0.3,1.3,0.3c0.6,0,1.1-0.2,1.6-0.5
		s0.6-0.7,0.6-1.2c0-0.5-0.2-0.8-0.6-1.1s-1-0.4-1.7-0.4l0.9-2.4h1.8l-0.6,1.5c1.5,0.4,2.3,1.3,2.3,2.6c0,0.9-0.4,1.6-1.1,2.2
		c-0.8,0.6-1.7,0.9-2.9,0.9c-0.4,0-0.9,0-1.3-0.1C1382.5,662.7,1382.1,662.6,1381.8,662.4z"/>
	<path class="st0" d="M1393.9,654.4l1.3-2.3c1.3,1.2,2.8,1.8,4.3,1.8c0.9,0,1.6-0.2,2.1-0.6c0.5-0.4,0.7-1,0.7-1.6
		c0-0.9-0.4-1.5-1.1-2c-0.7-0.5-1.5-0.9-2.4-1.3c-0.7-0.3-1.4-0.7-2.1-1c-0.7-0.4-1.2-0.9-1.7-1.4c-0.4-0.6-0.7-1.3-0.7-2.2
		c0-1.4,0.5-2.4,1.5-3.3s2.3-1.3,3.8-1.3c0.8,0,1.6,0.1,2.5,0.3c0.8,0.2,1.5,0.6,2.2,1l-1.2,2.1c-0.7-0.3-1.2-0.6-1.7-0.7
		c-0.5-0.1-1-0.2-1.6-0.2c-0.9,0-1.5,0.2-2,0.5c-0.5,0.3-0.7,0.8-0.7,1.4c0,0.7,0.3,1.2,1,1.6c0.6,0.4,1.4,0.8,2.2,1.2
		c0.7,0.3,1.5,0.7,2.2,1.1c0.7,0.4,1.3,0.9,1.8,1.6c0.5,0.6,0.7,1.4,0.7,2.4c0,1-0.2,1.8-0.7,2.6s-1.2,1.3-2,1.7s-1.8,0.6-2.9,0.6
		c-1,0-1.9-0.2-2.9-0.5C1395.5,655.5,1394.6,655,1393.9,654.4z"/>
	<path class="st0" d="M1408.8,633c0-0.6,0.2-1,0.5-1.4c0.4-0.4,0.8-0.5,1.4-0.5c0.6,0,1,0.2,1.4,0.5c0.4,0.4,0.5,0.8,0.5,1.4
		c0,0.5-0.2,1-0.5,1.4s-0.8,0.5-1.4,0.5c-0.5,0-1-0.2-1.4-0.5S1408.8,633.5,1408.8,633z M1409.3,656v-16.6h2.8V656H1409.3z"/>
	<path class="st0" d="M1420.6,653.5h9.7v2.5h-13.4v-2.2l9.3-11.9h-8.9v-2.5h12.5v2.3L1420.6,653.5z"/>
	<path class="st0" d="M1443.7,631.1h2.7v15.9c0.1-0.1,0.2-0.2,0.3-0.3s0.2-0.2,0.3-0.3l6-6.9h3.3l-6.5,7.5l7.5,9.1h-3.4l-5.9-7
		l-1.5,1.7v5.3h-2.7V631.1z"/>
	<path class="st0" d="M1459.6,651c0-1.7,0.6-3,1.9-4c1.3-1,3-1.5,5.2-1.5c1.5,0,2.9,0.2,4.4,0.7v-0.2c0-1.4-0.4-2.5-1.2-3.3
		s-1.9-1.2-3.3-1.2c-1.4,0-3,0.5-4.6,1.4l-1-2.3c1.1-0.6,2.1-1,3-1.3c0.9-0.2,1.9-0.4,2.9-0.4c2.1,0,3.8,0.6,5.1,1.9s1.9,3,1.9,5.2
		v9.8h-2.5l-0.1-2.5c-0.6,0.9-1.3,1.6-2.3,2.1c-1,0.5-2.1,0.7-3.3,0.7c-1.8,0-3.3-0.5-4.4-1.5C1460.1,653.9,1459.6,652.6,1459.6,651
		z M1467,648.1c-1.4,0-2.6,0.3-3.4,0.8c-0.8,0.5-1.2,1.2-1.2,2.2c0,0.8,0.3,1.5,1,2c0.6,0.5,1.5,0.8,2.6,0.8c1,0,1.8-0.2,2.6-0.6
		c0.8-0.4,1.4-1,1.8-1.7c0.5-0.7,0.7-1.5,0.7-2.3v-0.4C1469.7,648.3,1468.4,648.1,1467,648.1z"/>
	<path class="st0" d="M1478.8,656v-24.9h2.7v10.7c0.6-0.9,1.4-1.5,2.4-2s2-0.7,3.1-0.7c1.3,0,2.5,0.3,3.6,1c1,0.6,1.8,1.5,2.4,2.7
		c0.6,1.1,0.9,2.4,0.9,3.9v9.4h-2.7v-9c0-1.6-0.4-2.9-1.3-3.9s-2-1.5-3.4-1.5c-0.9,0-1.8,0.2-2.5,0.7c-0.7,0.5-1.3,1.1-1.8,1.9
		c-0.4,0.8-0.6,1.7-0.6,2.7v9.2H1478.8z"/>
	<path class="st0" d="M1496.6,639.4h3l4.4,10.7c0.2,0.5,0.4,0.9,0.6,1.4c0.2,0.5,0.3,1,0.5,1.4h0.1c0.1-0.5,0.3-0.9,0.5-1.4
		c0.2-0.5,0.4-1,0.6-1.5l4.4-10.6h2.9l-6.9,16.6h-3.1L1496.6,639.4z"/>
	<path class="st0" d="M1531.7,647.7v1.1h-14.1c0.3,1.5,1,2.7,2.1,3.6c1.1,0.9,2.5,1.4,4.1,1.4c0.9,0,1.8-0.2,2.8-0.5
		c1-0.3,1.9-0.9,2.7-1.7l1.6,2.1c-1.2,1-2.4,1.7-3.6,2.1c-1.2,0.4-2.4,0.6-3.5,0.6c-1.8,0-3.4-0.4-4.8-1.1c-1.4-0.7-2.5-1.8-3.3-3.1
		c-0.8-1.3-1.2-2.8-1.2-4.5c0-1.6,0.4-3.1,1.1-4.4c0.7-1.3,1.8-2.3,3.1-3s2.8-1.1,4.4-1.1c1.6,0,3.1,0.4,4.3,1.1
		c1.3,0.7,2.3,1.8,3,3.1C1531.3,644.5,1531.7,646,1531.7,647.7z M1517.6,646.4h11.3c-0.2-1.4-0.9-2.6-1.9-3.5
		c-1-0.9-2.2-1.4-3.7-1.4c-1.5,0-2.7,0.5-3.8,1.4C1518.5,643.8,1517.8,645,1517.6,646.4z"/>
	<path class="st0" d="M1551.7,639c1.2,0,2.3,0.2,3.4,0.7c1,0.4,1.9,1.1,2.7,1.8v-10.5h2.7V656h-2.5l-0.1-2.3
		c-0.7,0.8-1.6,1.5-2.7,1.9c-1.1,0.5-2.2,0.7-3.5,0.7c-1.6,0-3-0.4-4.3-1.1c-1.3-0.7-2.3-1.8-3-3.1c-0.7-1.3-1.1-2.8-1.1-4.4
		s0.4-3.1,1.1-4.4c0.7-1.3,1.7-2.3,3-3.1C1548.7,639.4,1550.1,639,1551.7,639z M1546.1,647.7c0,1.2,0.3,2.2,0.8,3.2
		c0.5,0.9,1.2,1.7,2.1,2.2s1.9,0.8,3,0.8s2.1-0.3,3-0.8s1.6-1.3,2.1-2.2c0.5-0.9,0.8-2,0.8-3.2c0-1.2-0.3-2.2-0.8-3.2
		c-0.5-0.9-1.2-1.7-2.1-2.2s-1.9-0.8-3-0.8s-2.1,0.3-3,0.8s-1.6,1.3-2.1,2.2C1546.4,645.4,1546.1,646.5,1546.1,647.7z"/>
	<path class="st0" d="M1581.6,647.7v1.1h-14.1c0.3,1.5,1,2.7,2.1,3.6c1.1,0.9,2.5,1.4,4.1,1.4c0.9,0,1.8-0.2,2.8-0.5
		c1-0.3,1.9-0.9,2.7-1.7l1.6,2.1c-1.2,1-2.4,1.7-3.6,2.1c-1.2,0.4-2.4,0.6-3.5,0.6c-1.8,0-3.4-0.4-4.8-1.1c-1.4-0.7-2.5-1.8-3.3-3.1
		c-0.8-1.3-1.2-2.8-1.2-4.5c0-1.6,0.4-3.1,1.1-4.4c0.7-1.3,1.8-2.3,3.1-3s2.8-1.1,4.4-1.1s3.1,0.4,4.3,1.1s2.3,1.8,3,3.1
		S1581.6,646,1581.6,647.7z M1567.5,646.4h11.3c-0.2-1.4-0.9-2.6-1.9-3.5c-1-0.9-2.2-1.4-3.7-1.4c-1.5,0-2.7,0.5-3.8,1.4
		S1567.8,645,1567.5,646.4z"/>
	<path class="st0" d="M1585.8,656v-16.6h2.5l0.1,2.5c0.7-0.9,1.5-1.6,2.4-2.1s2-0.8,3.2-0.8c1.3,0,2.5,0.3,3.6,1
		c1,0.6,1.8,1.5,2.4,2.7c0.6,1.1,0.9,2.4,0.9,3.9v9.4h-2.7v-9c0-1.6-0.4-2.9-1.3-3.9c-0.9-1-2-1.5-3.4-1.5c-0.9,0-1.8,0.2-2.5,0.7
		s-1.3,1.1-1.8,1.9c-0.4,0.8-0.6,1.7-0.6,2.7v9.2H1585.8z"/>
	<path class="st0" d="M1621.7,647.7v1.1h-14.1c0.3,1.5,1,2.7,2.1,3.6c1.1,0.9,2.5,1.4,4.1,1.4c0.9,0,1.8-0.2,2.8-0.5
		c1-0.3,1.9-0.9,2.7-1.7l1.6,2.1c-1.2,1-2.4,1.7-3.6,2.1c-1.2,0.4-2.4,0.6-3.5,0.6c-1.8,0-3.4-0.4-4.8-1.1c-1.4-0.7-2.5-1.8-3.3-3.1
		c-0.8-1.3-1.2-2.8-1.2-4.5c0-1.6,0.4-3.1,1.1-4.4c0.7-1.3,1.8-2.3,3.1-3s2.8-1.1,4.4-1.1s3.1,0.4,4.3,1.1s2.3,1.8,3,3.1
		S1621.7,646,1621.7,647.7z M1607.6,646.4h11.3c-0.2-1.4-0.9-2.6-1.9-3.5c-1-0.9-2.2-1.4-3.7-1.4c-1.5,0-2.7,0.5-3.8,1.4
		S1607.8,645,1607.6,646.4z"/>
	<path class="st0" d="M1623.7,639.4h3l4.4,10.7c0.2,0.5,0.4,0.9,0.6,1.4c0.2,0.5,0.3,1,0.5,1.4h0.1c0.1-0.5,0.3-0.9,0.5-1.4
		c0.2-0.5,0.4-1,0.6-1.5l4.4-10.6h2.9l-10.3,24.9h-2.9l3.4-8.3L1623.7,639.4z"/>
	<path class="st0" d="M1642.6,633c0-0.6,0.2-1,0.5-1.4c0.4-0.4,0.8-0.5,1.4-0.5c0.6,0,1,0.2,1.4,0.5c0.4,0.4,0.5,0.8,0.5,1.4
		c0,0.5-0.2,1-0.5,1.4s-0.8,0.5-1.4,0.5c-0.5,0-1-0.2-1.4-0.5C1642.8,634,1642.6,633.5,1642.6,633z M1643.1,656v-16.6h2.8V656
		H1643.1z"/>
	<path class="st0" d="M1653.7,639.4l0.1,2c0.6-0.7,1.4-1.3,2.3-1.7c0.9-0.4,1.8-0.6,2.9-0.6c1.3,0,2.4,0.3,3.3,0.9s1.7,1.4,2.3,2.5
		c0.6-1,1.5-1.8,2.5-2.4c1-0.6,2.2-0.9,3.4-0.9c1.3,0,2.4,0.3,3.4,0.9c1,0.6,1.7,1.5,2.3,2.6c0.6,1.1,0.8,2.4,0.8,3.8v9.7h-2.7v-9.2
		c0-1.2-0.2-2.1-0.6-2.9c-0.4-0.8-1-1.3-1.6-1.7c-0.7-0.4-1.4-0.6-2.1-0.6c-0.7,0-1.4,0.2-2.1,0.6s-1.2,1-1.7,1.7
		c-0.4,0.8-0.6,1.7-0.6,2.9v9.2h-2.7v-9.2c0-1.2-0.2-2.1-0.6-2.9c-0.4-0.8-1-1.3-1.6-1.7c-0.7-0.4-1.4-0.6-2.1-0.6
		c-0.7,0-1.4,0.2-2.1,0.6c-0.7,0.4-1.2,1-1.7,1.7c-0.4,0.8-0.6,1.7-0.6,2.9v9.2h-2.7v-16.6H1653.7z"/>
	<path class="st0" d="M1681.5,633c0-0.6,0.2-1,0.5-1.4c0.4-0.4,0.8-0.5,1.4-0.5c0.6,0,1,0.2,1.4,0.5c0.4,0.4,0.5,0.8,0.5,1.4
		c0,0.5-0.2,1-0.5,1.4s-0.8,0.5-1.4,0.5c-0.5,0-1-0.2-1.4-0.5C1681.7,634,1681.5,633.5,1681.5,633z M1682,656v-16.6h2.8V656H1682z"
		/>
	<path class="st0" d="M1690.1,654.4c0-0.6,0.2-1,0.5-1.4c0.4-0.4,0.8-0.5,1.4-0.5c0.6,0,1,0.2,1.4,0.5c0.4,0.4,0.5,0.8,0.5,1.4
		c0,0.5-0.2,1-0.5,1.4s-0.8,0.5-1.4,0.5c-0.5,0-1-0.2-1.4-0.5C1690.3,655.4,1690.1,654.9,1690.1,654.4z M1697.2,654.4
		c0-0.6,0.2-1,0.5-1.4c0.4-0.4,0.8-0.5,1.4-0.5c0.6,0,1,0.2,1.4,0.5c0.4,0.4,0.5,0.8,0.5,1.4c0,0.5-0.2,1-0.5,1.4s-0.8,0.5-1.4,0.5
		c-0.5,0-1-0.2-1.4-0.5C1697.4,655.4,1697.2,654.9,1697.2,654.4z M1704.4,654.4c0-0.6,0.2-1,0.5-1.4c0.4-0.4,0.8-0.5,1.4-0.5
		c0.6,0,1,0.2,1.4,0.5c0.4,0.4,0.5,0.8,0.5,1.4c0,0.5-0.2,1-0.5,1.4s-0.8,0.5-1.4,0.5c-0.5,0-1-0.2-1.4-0.5
		C1704.5,655.4,1704.4,654.9,1704.4,654.4z"/>
	<path class="st0" d="M237.3,693.6v-13.9h2.9v14.4c0,1.6,0.3,3,0.9,4.3c0.6,1.2,1.4,2.2,2.5,2.9c1.1,0.7,2.4,1.1,3.8,1.1
		c1.5,0,2.7-0.4,3.8-1.1s1.9-1.7,2.5-2.9c0.6-1.2,0.9-2.7,0.9-4.3v-14.4h2.9v13.9c0,2.3-0.4,4.3-1.2,6.1s-2,3-3.5,4
		s-3.3,1.4-5.5,1.4c-2.1,0-3.9-0.5-5.4-1.4c-1.5-0.9-2.7-2.3-3.5-4S237.3,695.9,237.3,693.6z M242.2,674.1c0-0.5,0.2-0.9,0.5-1.2
		c0.3-0.3,0.7-0.5,1.2-0.5c0.5,0,0.9,0.2,1.2,0.5c0.3,0.3,0.5,0.7,0.5,1.2s-0.2,0.9-0.5,1.2c-0.3,0.3-0.7,0.5-1.2,0.5
		c-0.5,0-0.9-0.2-1.2-0.5C242.4,674.9,242.2,674.5,242.2,674.1z M249.2,674.1c0-0.5,0.2-0.9,0.5-1.2c0.3-0.3,0.7-0.5,1.2-0.5
		c0.5,0,0.9,0.2,1.2,0.5c0.3,0.3,0.5,0.7,0.5,1.2s-0.2,0.9-0.5,1.2c-0.3,0.3-0.7,0.5-1.2,0.5c-0.5,0-0.9-0.2-1.2-0.5
		C249.4,674.9,249.2,674.5,249.2,674.1z"/>
	<path class="st0" d="M261.7,702.9l1.3-2.3c1.3,1.2,2.8,1.8,4.3,1.8c0.9,0,1.6-0.2,2.1-0.6c0.5-0.4,0.7-1,0.7-1.6
		c0-0.9-0.4-1.5-1.1-2c-0.7-0.5-1.5-0.9-2.4-1.3c-0.7-0.3-1.4-0.7-2.1-1c-0.7-0.4-1.2-0.9-1.7-1.4c-0.4-0.6-0.7-1.3-0.7-2.2
		c0-1.4,0.5-2.4,1.5-3.3s2.3-1.3,3.8-1.3c0.8,0,1.6,0.1,2.5,0.3c0.8,0.2,1.5,0.6,2.2,1L271,691c-0.7-0.3-1.2-0.6-1.7-0.7
		c-0.5-0.1-1-0.2-1.6-0.2c-0.9,0-1.5,0.2-2,0.5c-0.5,0.3-0.7,0.8-0.7,1.4c0,0.7,0.3,1.2,1,1.6c0.6,0.4,1.4,0.8,2.2,1.2
		c0.7,0.3,1.5,0.7,2.2,1.1c0.7,0.4,1.3,0.9,1.8,1.6c0.5,0.6,0.7,1.4,0.7,2.4c0,1-0.2,1.8-0.7,2.6s-1.2,1.3-2,1.7s-1.8,0.6-2.9,0.6
		c-1,0-1.9-0.2-2.9-0.5C263.3,704,262.4,703.5,261.7,702.9z"/>
	<path class="st0" d="M278.7,687.9v-4.2h2.7v4.2h4.5v2.5h-4.5v8.9c0,2,0.9,3.1,2.8,3.1c0.3,0,0.6,0,0.9-0.1c0.3-0.1,0.6-0.1,0.9-0.3
		v2.4c-0.3,0.1-0.6,0.2-1,0.3c-0.4,0.1-0.8,0.1-1.4,0.1c-1.6,0-2.8-0.5-3.6-1.4s-1.3-2.2-1.3-3.9v-9.1H276v-2.5H278.7z"/>
	<path class="st0" d="M306.4,696.2v1.1h-14.1c0.3,1.5,1,2.7,2.1,3.6c1.1,0.9,2.5,1.4,4.1,1.4c0.9,0,1.8-0.2,2.8-0.5
		c1-0.3,1.9-0.9,2.7-1.7l1.6,2.1c-1.2,1-2.4,1.7-3.6,2.1s-2.4,0.6-3.5,0.6c-1.8,0-3.4-0.4-4.8-1.1c-1.4-0.7-2.5-1.8-3.3-3.1
		c-0.8-1.3-1.2-2.8-1.2-4.5c0-1.6,0.4-3.1,1.1-4.4c0.7-1.3,1.8-2.3,3.1-3s2.8-1.1,4.4-1.1c1.6,0,3.1,0.4,4.3,1.1s2.3,1.8,3,3.1
		C306,693.1,306.4,694.5,306.4,696.2z M292.3,695h11.3c-0.2-1.4-0.9-2.6-1.9-3.5c-1-0.9-2.2-1.4-3.7-1.4c-1.5,0-2.7,0.5-3.8,1.4
		C293.2,692.4,292.5,693.6,292.3,695z"/>
	<path class="st0" d="M313.4,679v25.6h-2.8V679H313.4z"/>
	<path class="st0" d="M318.2,681.5c0-0.6,0.2-1,0.5-1.4c0.4-0.4,0.8-0.5,1.4-0.5c0.6,0,1,0.2,1.4,0.5c0.4,0.4,0.5,0.8,0.5,1.4
		c0,0.5-0.2,1-0.5,1.4s-0.8,0.5-1.4,0.5c-0.5,0-1-0.2-1.4-0.5S318.2,682.1,318.2,681.5z M318.7,704.5v-16.6h2.8v16.6H318.7z"/>
	<path class="st0" d="M326.8,679.6h2.7v15.9c0.1-0.1,0.2-0.2,0.3-0.3s0.2-0.2,0.3-0.3l6-6.9h3.3l-6.5,7.5l7.5,9.1h-3.4l-5.9-7
		l-1.5,1.7v5.3h-2.7V679.6z"/>
	<path class="st0" d="M352.3,679.6h2.7v15.9c0.1-0.1,0.2-0.2,0.3-0.3s0.2-0.2,0.3-0.3l6-6.9h3.3l-6.5,7.5l7.5,9.1h-3.4l-5.9-7
		l-1.5,1.7v5.3h-2.7V679.6z"/>
	<path class="st0" d="M368.2,699.6c0-1.7,0.6-3,1.9-4c1.3-1,3-1.5,5.2-1.5c1.5,0,2.9,0.2,4.4,0.7v-0.2c0-1.4-0.4-2.5-1.2-3.3
		s-1.9-1.2-3.3-1.2c-1.4,0-3,0.5-4.6,1.4l-1-2.3c1.1-0.6,2.1-1,3-1.3c0.9-0.2,1.9-0.4,2.9-0.4c2.1,0,3.8,0.6,5.1,1.9s1.9,3,1.9,5.2
		v9.8H380l-0.1-2.5c-0.6,0.9-1.3,1.6-2.3,2.1c-1,0.5-2.1,0.7-3.3,0.7c-1.8,0-3.3-0.5-4.4-1.5C368.7,702.4,368.2,701.2,368.2,699.6z
		 M375.6,696.6c-1.4,0-2.6,0.3-3.4,0.8c-0.8,0.5-1.2,1.2-1.2,2.2c0,0.8,0.3,1.5,1,2c0.6,0.5,1.5,0.8,2.6,0.8c1,0,1.8-0.2,2.6-0.6
		c0.8-0.4,1.4-1,1.8-1.7c0.5-0.7,0.7-1.5,0.7-2.3v-0.4C378.3,696.9,377,696.6,375.6,696.6z"/>
	<path class="st0" d="M390.2,679v25.6h-2.8V679H390.2z"/>
	<path class="st0" d="M395,681.5c0-0.6,0.2-1,0.5-1.4c0.4-0.4,0.8-0.5,1.4-0.5c0.6,0,1,0.2,1.4,0.5c0.4,0.4,0.5,0.8,0.5,1.4
		c0,0.5-0.2,1-0.5,1.4s-0.8,0.5-1.4,0.5c-0.5,0-1-0.2-1.4-0.5S395,682.1,395,681.5z M395.5,704.5v-16.6h2.8v16.6H395.5z"/>
	<path class="st0" d="M405.4,687.9v-4.2h2.7v4.2h4.5v2.5h-4.5v8.9c0,2,0.9,3.1,2.8,3.1c0.3,0,0.6,0,0.9-0.1c0.3-0.1,0.6-0.1,0.9-0.3
		v2.4c-0.3,0.1-0.6,0.2-1,0.3c-0.4,0.1-0.8,0.1-1.4,0.1c-1.6,0-2.8-0.5-3.6-1.4s-1.3-2.2-1.3-3.9v-9.1h-2.7v-2.5H405.4z"/>
	<path class="st0" d="M433.1,696.2v1.1H419c0.3,1.5,1,2.7,2.1,3.6c1.1,0.9,2.5,1.4,4.1,1.4c0.9,0,1.8-0.2,2.8-0.5
		c1-0.3,1.9-0.9,2.7-1.7l1.6,2.1c-1.2,1-2.4,1.7-3.6,2.1s-2.4,0.6-3.5,0.6c-1.8,0-3.4-0.4-4.8-1.1c-1.4-0.7-2.5-1.8-3.3-3.1
		c-0.8-1.3-1.2-2.8-1.2-4.5c0-1.6,0.4-3.1,1.1-4.4c0.7-1.3,1.8-2.3,3.1-3s2.8-1.1,4.4-1.1c1.6,0,3.1,0.4,4.3,1.1s2.3,1.8,3,3.1
		C432.7,693.1,433.1,694.5,433.1,696.2z M418.9,695h11.3c-0.2-1.4-0.9-2.6-1.9-3.5c-1-0.9-2.2-1.4-3.7-1.4c-1.5,0-2.7,0.5-3.8,1.4
		C419.8,692.4,419.2,693.6,418.9,695z"/>
	<path class="st0" d="M440,679v25.6h-2.8V679H440z"/>
	<path class="st0" d="M444.8,681.5c0-0.6,0.2-1,0.5-1.4c0.4-0.4,0.8-0.5,1.4-0.5c0.6,0,1,0.2,1.4,0.5c0.4,0.4,0.5,0.8,0.5,1.4
		c0,0.5-0.2,1-0.5,1.4s-0.8,0.5-1.4,0.5c-0.5,0-1-0.2-1.4-0.5S444.8,682.1,444.8,681.5z M445.3,704.5v-16.6h2.8v16.6H445.3z"/>
	<path class="st0" d="M462,679.6h2.7v15.9c0.1-0.1,0.2-0.2,0.3-0.3s0.2-0.2,0.3-0.3l6-6.9h3.3l-6.5,7.5l7.5,9.1h-3.4l-5.9-7
		l-1.5,1.7v5.3H462V679.6z"/>
	<path class="st0" d="M477.9,699.6c0-1.7,0.6-3,1.9-4c1.3-1,3-1.5,5.2-1.5c1.5,0,2.9,0.2,4.4,0.7v-0.2c0-1.4-0.4-2.5-1.2-3.3
		s-1.9-1.2-3.3-1.2c-1.4,0-3,0.5-4.6,1.4l-1-2.3c1.1-0.6,2.1-1,3-1.3c0.9-0.2,1.9-0.4,2.9-0.4c2.1,0,3.8,0.6,5.1,1.9s1.9,3,1.9,5.2
		v9.8h-2.5l-0.1-2.5c-0.6,0.9-1.3,1.6-2.3,2.1c-1,0.5-2.1,0.7-3.3,0.7c-1.8,0-3.3-0.5-4.4-1.5C478.5,702.4,477.9,701.2,477.9,699.6z
		 M485.3,696.6c-1.4,0-2.6,0.3-3.4,0.8c-0.8,0.5-1.2,1.2-1.2,2.2c0,0.8,0.3,1.5,1,2c0.6,0.5,1.5,0.8,2.6,0.8c1,0,1.8-0.2,2.6-0.6
		c0.8-0.4,1.4-1,1.8-1.7c0.5-0.7,0.7-1.5,0.7-2.3v-0.4C488.1,696.9,486.7,696.6,485.3,696.6z"/>
	<path class="st0" d="M497.2,704.5v-24.9h2.7v10.7c0.6-0.9,1.4-1.5,2.4-2s2-0.7,3.1-0.7c1.3,0,2.5,0.3,3.6,1c1,0.6,1.8,1.5,2.4,2.7
		c0.6,1.1,0.9,2.4,0.9,3.9v9.4h-2.7v-9c0-1.6-0.4-2.9-1.3-3.9s-2-1.5-3.4-1.5c-0.9,0-1.8,0.2-2.5,0.7c-0.7,0.5-1.3,1.1-1.8,1.9
		c-0.4,0.8-0.6,1.7-0.6,2.7v9.2H497.2z"/>
	<path class="st0" d="M514.9,687.9h3l4.4,10.7c0.2,0.5,0.4,0.9,0.6,1.4c0.2,0.5,0.3,1,0.5,1.4h0.1c0.1-0.5,0.3-0.9,0.5-1.4
		c0.2-0.5,0.4-1,0.6-1.5l4.4-10.6h2.9l-6.9,16.6h-3.1L514.9,687.9z"/>
	<path class="st0" d="M550,696.2v1.1H536c0.3,1.5,1,2.7,2.1,3.6c1.1,0.9,2.5,1.4,4.1,1.4c0.9,0,1.8-0.2,2.8-0.5
		c1-0.3,1.9-0.9,2.7-1.7l1.6,2.1c-1.2,1-2.4,1.7-3.6,2.1s-2.4,0.6-3.5,0.6c-1.8,0-3.4-0.4-4.8-1.1c-1.4-0.7-2.5-1.8-3.3-3.1
		c-0.8-1.3-1.2-2.8-1.2-4.5c0-1.6,0.4-3.1,1.1-4.4c0.7-1.3,1.8-2.3,3.1-3s2.8-1.1,4.4-1.1c1.6,0,3.1,0.4,4.3,1.1s2.3,1.8,3,3.1
		C549.7,693.1,550,694.5,550,696.2z M535.9,695h11.3c-0.2-1.4-0.9-2.6-1.9-3.5c-1-0.9-2.2-1.4-3.7-1.4c-1.5,0-2.7,0.5-3.8,1.4
		C536.8,692.4,536.2,693.6,535.9,695z"/>
	<path class="st0" d="M554.2,704.5v-16.6h2.5l0.1,2.5c0.7-0.9,1.5-1.6,2.4-2.1c1-0.5,2-0.8,3.2-0.8c1.3,0,2.5,0.3,3.6,1
		c1,0.6,1.8,1.5,2.4,2.7c0.6,1.1,0.9,2.4,0.9,3.9v9.4h-2.7v-9c0-1.6-0.4-2.9-1.3-3.9s-2-1.5-3.4-1.5c-0.9,0-1.8,0.2-2.5,0.7
		c-0.7,0.5-1.3,1.1-1.8,1.9c-0.4,0.8-0.6,1.7-0.6,2.7v9.2H554.2z"/>
	<path class="st0" d="M573.8,681.5c0-0.6,0.2-1,0.5-1.4c0.4-0.4,0.8-0.5,1.4-0.5c0.6,0,1,0.2,1.4,0.5c0.4,0.4,0.5,0.8,0.5,1.4
		c0,0.5-0.2,1-0.5,1.4s-0.8,0.5-1.4,0.5c-0.5,0-1-0.2-1.4-0.5S573.8,682.1,573.8,681.5z M574.3,704.5v-16.6h2.8v16.6H574.3z"/>
	<path class="st0" d="M582.4,704.5v-16.6h2.5l0.1,2.5c0.7-0.9,1.5-1.6,2.4-2.1c1-0.5,2-0.8,3.2-0.8c1.3,0,2.5,0.3,3.6,1
		c1,0.6,1.8,1.5,2.4,2.7c0.6,1.1,0.9,2.4,0.9,3.9v9.4h-2.7v-9c0-1.6-0.4-2.9-1.3-3.9s-2-1.5-3.4-1.5c-0.9,0-1.8,0.2-2.5,0.7
		c-0.7,0.5-1.3,1.1-1.8,1.9c-0.4,0.8-0.6,1.7-0.6,2.7v9.2H582.4z"/>
	<path class="st0" d="M611.1,679.6h2.7v15.9c0.1-0.1,0.2-0.2,0.3-0.3s0.2-0.2,0.3-0.3l6-6.9h3.3l-6.5,7.5l7.5,9.1h-3.4l-5.9-7
		l-1.5,1.7v5.3h-2.7V679.6z"/>
	<path class="st0" d="M643.5,696.2v1.1h-14.1c0.3,1.5,1,2.7,2.1,3.6c1.1,0.9,2.5,1.4,4.1,1.4c0.9,0,1.8-0.2,2.8-0.5
		c1-0.3,1.9-0.9,2.7-1.7l1.6,2.1c-1.2,1-2.4,1.7-3.6,2.1s-2.4,0.6-3.5,0.6c-1.8,0-3.4-0.4-4.8-1.1c-1.4-0.7-2.5-1.8-3.3-3.1
		c-0.8-1.3-1.2-2.8-1.2-4.5c0-1.6,0.4-3.1,1.1-4.4c0.7-1.3,1.8-2.3,3.1-3s2.8-1.1,4.4-1.1c1.6,0,3.1,0.4,4.3,1.1s2.3,1.8,3,3.1
		C643.1,693.1,643.5,694.5,643.5,696.2z M629.3,695h11.3c-0.2-1.4-0.9-2.6-1.9-3.5c-1-0.9-2.2-1.4-3.7-1.4c-1.5,0-2.7,0.5-3.8,1.4
		C630.2,692.4,629.6,693.6,629.3,695z"/>
	<path class="st0" d="M645.4,687.9h3l4.4,10.7c0.2,0.5,0.4,0.9,0.6,1.4c0.2,0.5,0.3,1,0.5,1.4h0.1c0.1-0.5,0.3-0.9,0.5-1.4
		c0.2-0.5,0.4-1,0.6-1.5l4.4-10.6h2.9L652,712.8h-2.9l3.4-8.3L645.4,687.9z"/>
	<path class="st0" d="M664.4,690.4v-2.5h2.7v-3.1c0-1.6,0.5-3,1.4-4c0.9-1,2.1-1.5,3.6-1.5c0.7,0,1.2,0.1,1.8,0.3
		c0.5,0.2,1,0.5,1.4,0.8l-1.1,2.3c-0.5-0.6-1.1-0.9-1.9-0.9c-0.7,0-1.4,0.3-1.8,0.8s-0.7,1.3-0.7,2.2v3.1h4.4v2.5h-4.4v14.1h-2.7
		v-14.1H664.4z"/>
	<path class="st0" d="M677.4,681.5c0-0.6,0.2-1,0.5-1.4c0.4-0.4,0.8-0.5,1.4-0.5c0.6,0,1,0.2,1.4,0.5c0.4,0.4,0.5,0.8,0.5,1.4
		c0,0.5-0.2,1-0.5,1.4s-0.8,0.5-1.4,0.5c-0.5,0-1-0.2-1.4-0.5S677.4,682.1,677.4,681.5z M677.9,704.5v-16.6h2.8v16.6H677.9z"/>
	<path class="st0" d="M686,704.5v-16.6h2.5l0.1,2.5c0.7-0.9,1.5-1.6,2.4-2.1c1-0.5,2-0.8,3.2-0.8c1.3,0,2.5,0.3,3.6,1
		c1,0.6,1.8,1.5,2.4,2.7c0.6,1.1,0.9,2.4,0.9,3.9v9.4h-2.7v-9c0-1.6-0.4-2.9-1.3-3.9s-2-1.5-3.4-1.5c-0.9,0-1.8,0.2-2.5,0.7
		c-0.7,0.5-1.3,1.1-1.8,1.9c-0.4,0.8-0.6,1.7-0.6,2.7v9.2H686z"/>
	<path class="st0" d="M721.9,696.2v1.1h-14.1c0.3,1.5,1,2.7,2.1,3.6c1.1,0.9,2.5,1.4,4.1,1.4c0.9,0,1.8-0.2,2.8-0.5
		c1-0.3,1.9-0.9,2.7-1.7l1.6,2.1c-1.2,1-2.4,1.7-3.6,2.1s-2.4,0.6-3.5,0.6c-1.8,0-3.4-0.4-4.8-1.1c-1.4-0.7-2.5-1.8-3.3-3.1
		c-0.8-1.3-1.2-2.8-1.2-4.5c0-1.6,0.4-3.1,1.1-4.4c0.7-1.3,1.8-2.3,3.1-3s2.8-1.1,4.4-1.1c1.6,0,3.1,0.4,4.3,1.1s2.3,1.8,3,3.1
		C721.5,693.1,721.9,694.5,721.9,696.2z M707.8,695H719c-0.2-1.4-0.9-2.6-1.9-3.5c-1-0.9-2.2-1.4-3.7-1.4c-1.5,0-2.7,0.5-3.8,1.4
		C708.6,692.4,708,693.6,707.8,695z"/>
	<path class="st0" d="M741.9,687.6c1.2,0,2.3,0.2,3.4,0.7c1,0.4,1.9,1.1,2.7,1.8v-10.5h2.7v24.9h-2.5l-0.1-2.3
		c-0.7,0.8-1.6,1.5-2.7,1.9c-1.1,0.5-2.2,0.7-3.5,0.7c-1.6,0-3-0.4-4.3-1.1c-1.3-0.7-2.3-1.8-3-3.1s-1.1-2.8-1.1-4.4
		s0.4-3.1,1.1-4.4c0.7-1.3,1.7-2.3,3-3.1C738.8,688,740.3,687.6,741.9,687.6z M736.3,696.2c0,1.2,0.3,2.2,0.8,3.2s1.2,1.7,2.1,2.2
		c0.9,0.5,1.9,0.8,3,0.8c1.1,0,2.1-0.3,3-0.8c0.9-0.5,1.6-1.3,2.1-2.2s0.8-2,0.8-3.2c0-1.2-0.3-2.2-0.8-3.2s-1.2-1.7-2.1-2.2
		c-0.9-0.5-1.9-0.8-3-0.8c-1.1,0-2.1,0.3-3,0.8c-0.9,0.5-1.6,1.3-2.1,2.2S736.3,695,736.3,696.2z"/>
	<path class="st0" d="M754.8,696.2c0-1.7,0.4-3.1,1.1-4.4c0.7-1.3,1.8-2.3,3.1-3.1c1.3-0.7,2.8-1.1,4.4-1.1s3.1,0.4,4.4,1.1
		c1.3,0.7,2.3,1.8,3.1,3.1c0.7,1.3,1.1,2.8,1.1,4.4s-0.4,3.1-1.1,4.4s-1.8,2.3-3.1,3.1c-1.3,0.7-2.8,1.1-4.4,1.1s-3.1-0.4-4.4-1.1
		c-1.3-0.7-2.3-1.8-3.1-3.1S754.8,697.9,754.8,696.2z M757.7,696.2c0,1.2,0.3,2.2,0.8,3.2s1.2,1.7,2.1,2.2c0.9,0.5,1.9,0.8,3,0.8
		c1.1,0,2.1-0.3,3-0.8c0.9-0.5,1.6-1.3,2.1-2.2s0.8-2,0.8-3.2c0-1.2-0.3-2.2-0.8-3.2s-1.2-1.7-2.1-2.2c-0.9-0.5-1.9-0.8-3-0.8
		c-1.1,0-2.1,0.3-3,0.8c-0.9,0.5-1.6,1.3-2.1,2.2S757.7,695,757.7,696.2z"/>
	<path class="st0" d="M783.5,704.9c-1.6,0-3-0.4-4.3-1.1c-1.3-0.7-2.3-1.8-3-3.1s-1.1-2.8-1.1-4.4s0.4-3.1,1.1-4.4
		c0.7-1.3,1.7-2.3,3-3.1c1.3-0.7,2.7-1.1,4.3-1.1c1.2,0,2.4,0.2,3.5,0.7c1.1,0.5,2,1.1,2.7,1.9l0.1-2.3h2.5v15c0,2-0.4,3.8-1.1,5.4
		c-0.7,1.5-1.8,2.7-3.3,3.6s-3.2,1.3-5.3,1.3c-1.2,0-2.3-0.2-3.3-0.5c-1-0.3-1.9-0.8-2.8-1.4l1.4-2.3c0.6,0.5,1.3,1,2.1,1.3
		s1.7,0.5,2.6,0.5c2.4,0,4.1-0.7,5.2-2c1.1-1.4,1.7-3.2,1.7-5.4v-0.9c-0.7,0.8-1.6,1.4-2.7,1.8C785.8,704.6,784.7,704.9,783.5,704.9
		z M777.9,696.2c0,1.2,0.3,2.2,0.8,3.2s1.2,1.7,2.1,2.2c0.9,0.5,1.9,0.8,3,0.8c1.1,0,2.1-0.3,3-0.8c0.9-0.5,1.6-1.3,2.1-2.2
		s0.8-2,0.8-3.2c0-1.2-0.3-2.2-0.8-3.2s-1.2-1.7-2.1-2.2c-0.9-0.5-1.9-0.8-3-0.8c-1.1,0-2.1,0.3-3,0.8c-0.9,0.5-1.6,1.3-2.1,2.2
		S777.9,695,777.9,696.2z M780.7,679.6c0,0.9,0.3,1.6,0.8,2.2s1.3,0.9,2.1,0.9c0.9,0,1.6-0.3,2.1-0.9s0.8-1.3,0.8-2.2h2
		c0,1-0.2,1.8-0.6,2.6s-1,1.4-1.8,1.8c-0.7,0.4-1.6,0.7-2.6,0.7c-1,0-1.8-0.2-2.6-0.7c-0.8-0.4-1.3-1.1-1.8-1.8s-0.6-1.6-0.6-2.6
		H780.7z"/>
	<path class="st0" d="M797.6,704.5v-16.6h2.5l0.2,2.6c0.6-0.9,1.3-1.6,2.1-2.1c0.9-0.5,1.9-0.8,3.1-0.8c0.5,0,1,0,1.6,0.1l-0.4,2.5
		c-0.5-0.1-1.1-0.2-1.5-0.2c-1.5,0-2.7,0.6-3.6,1.7c-0.8,1.1-1.3,2.5-1.3,4.2v8.6H797.6z"/>
	<path class="st0" d="M812.3,687.9v9c0,1.6,0.4,2.9,1.3,3.9s2,1.5,3.4,1.5c0.9,0,1.8-0.2,2.5-0.7c0.7-0.5,1.3-1.1,1.8-1.9
		s0.6-1.7,0.6-2.7v-9.2h2.7v16.6h-2.5L822,702c-0.6,0.9-1.4,1.6-2.4,2.1c-1,0.5-2,0.8-3.2,0.8c-1.3,0-2.5-0.3-3.6-1
		c-1-0.6-1.8-1.5-2.4-2.7c-0.6-1.1-0.9-2.4-0.9-3.9v-9.4H812.3z"/>
	<path class="st0" d="M837.6,690.4v-2.5h2.7v-3.1c0-1.6,0.5-3,1.4-4c0.9-1,2.1-1.5,3.6-1.5c0.7,0,1.2,0.1,1.8,0.3
		c0.5,0.2,1,0.5,1.4,0.8l-1.1,2.3c-0.5-0.6-1.1-0.9-1.9-0.9c-0.7,0-1.4,0.3-1.8,0.8s-0.7,1.3-0.7,2.2v3.1h4.4v2.5h-4.4v14.1h-2.7
		v-14.1H837.6z"/>
	<path class="st0" d="M850.6,681.5c0-0.6,0.2-1,0.5-1.4c0.4-0.4,0.8-0.5,1.4-0.5c0.6,0,1,0.2,1.4,0.5c0.4,0.4,0.5,0.8,0.5,1.4
		c0,0.5-0.2,1-0.5,1.4s-0.8,0.5-1.4,0.5c-0.5,0-1-0.2-1.4-0.5S850.6,682.1,850.6,681.5z M851.1,704.5v-16.6h2.8v16.6H851.1z"/>
	<path class="st0" d="M858,687.9h3l4.4,10.7c0.2,0.5,0.4,0.9,0.6,1.4c0.2,0.5,0.3,1,0.5,1.4h0.1c0.1-0.5,0.3-0.9,0.5-1.4
		c0.2-0.5,0.4-1,0.6-1.5l4.4-10.6h2.9l-10.3,24.9h-2.9l3.4-8.3L858,687.9z"/>
	<path class="st0" d="M877,699.6c0-1.7,0.6-3,1.9-4c1.3-1,3-1.5,5.2-1.5c1.5,0,2.9,0.2,4.4,0.7v-0.2c0-1.4-0.4-2.5-1.2-3.3
		s-1.9-1.2-3.3-1.2c-1.4,0-3,0.5-4.6,1.4l-1-2.3c1.1-0.6,2.1-1,3-1.3c0.9-0.2,1.9-0.4,2.9-0.4c2.1,0,3.8,0.6,5.1,1.9s1.9,3,1.9,5.2
		v9.8h-2.5l-0.1-2.5c-0.6,0.9-1.3,1.6-2.3,2.1c-1,0.5-2.1,0.7-3.3,0.7c-1.8,0-3.3-0.5-4.4-1.5C877.5,702.4,877,701.2,877,699.6z
		 M884.4,696.6c-1.4,0-2.6,0.3-3.4,0.8c-0.8,0.5-1.2,1.2-1.2,2.2c0,0.8,0.3,1.5,1,2c0.6,0.5,1.5,0.8,2.6,0.8c1,0,1.8-0.2,2.6-0.6
		c0.8-0.4,1.4-1,1.8-1.7c0.5-0.7,0.7-1.5,0.7-2.3v-0.4C887.1,696.9,885.8,696.6,884.4,696.6z"/>
	<path class="st0" d="M897.4,687.9v-4.2h2.7v4.2h4.5v2.5h-4.5v8.9c0,2,0.9,3.1,2.8,3.1c0.3,0,0.6,0,0.9-0.1c0.3-0.1,0.6-0.1,0.9-0.3
		v2.4c-0.3,0.1-0.6,0.2-1,0.3c-0.4,0.1-0.8,0.1-1.4,0.1c-1.6,0-2.8-0.5-3.6-1.4s-1.3-2.2-1.3-3.9v-9.1h-2.7v-2.5H897.4z"/>
	<path class="st0" d="M908.5,699.6c0-1.7,0.6-3,1.9-4c1.3-1,3-1.5,5.2-1.5c1.5,0,2.9,0.2,4.4,0.7v-0.2c0-1.4-0.4-2.5-1.2-3.3
		s-1.9-1.2-3.3-1.2c-1.4,0-3,0.5-4.6,1.4l-1-2.3c1.1-0.6,2.1-1,3-1.3c0.9-0.2,1.9-0.4,2.9-0.4c2.1,0,3.8,0.6,5.1,1.9s1.9,3,1.9,5.2
		v9.8h-2.5l-0.1-2.5c-0.6,0.9-1.3,1.6-2.3,2.1c-1,0.5-2.1,0.7-3.3,0.7c-1.8,0-3.3-0.5-4.4-1.5C909,702.4,908.5,701.2,908.5,699.6z
		 M915.9,696.6c-1.4,0-2.6,0.3-3.4,0.8c-0.8,0.5-1.2,1.2-1.2,2.2c0,0.8,0.3,1.5,1,2c0.6,0.5,1.5,0.8,2.6,0.8c1,0,1.8-0.2,2.6-0.6
		c0.8-0.4,1.4-1,1.8-1.7c0.5-0.7,0.7-1.5,0.7-2.3v-0.4C918.6,696.9,917.3,696.6,915.9,696.6z"/>
	<path class="st0" d="M938.8,687.9v9c0,1.6,0.4,2.9,1.3,3.9s2,1.5,3.4,1.5c0.9,0,1.8-0.2,2.5-0.7c0.7-0.5,1.3-1.1,1.8-1.9
		s0.6-1.7,0.6-2.7v-9.2h2.7v16.6h-2.5l-0.1-2.5c-0.6,0.9-1.4,1.6-2.4,2.1c-1,0.5-2,0.8-3.2,0.8c-1.3,0-2.5-0.3-3.6-1
		c-1-0.6-1.8-1.5-2.4-2.7c-0.6-1.1-0.9-2.4-0.9-3.9v-9.4H938.8z"/>
	<path class="st0" d="M959.3,679v25.6h-2.8V679H959.3z"/>
	<path class="st0" d="M964,699.6c0-1.7,0.6-3,1.9-4c1.3-1,3-1.5,5.2-1.5c1.5,0,2.9,0.2,4.4,0.7v-0.2c0-1.4-0.4-2.5-1.2-3.3
		s-1.9-1.2-3.3-1.2c-1.4,0-3,0.5-4.6,1.4l-1-2.3c1.1-0.6,2.1-1,3-1.3c0.9-0.2,1.9-0.4,2.9-0.4c2.1,0,3.8,0.6,5.1,1.9s1.9,3,1.9,5.2
		v9.8h-2.5l-0.1-2.5c-0.6,0.9-1.3,1.6-2.3,2.1c-1,0.5-2.1,0.7-3.3,0.7c-1.8,0-3.3-0.5-4.4-1.5C964.6,702.4,964,701.2,964,699.6z
		 M971.4,696.6c-1.4,0-2.6,0.3-3.4,0.8c-0.8,0.5-1.2,1.2-1.2,2.2c0,0.8,0.3,1.5,1,2c0.6,0.5,1.5,0.8,2.6,0.8c1,0,1.8-0.2,2.6-0.6
		c0.8-0.4,1.4-1,1.8-1.7c0.5-0.7,0.7-1.5,0.7-2.3v-0.4C974.2,696.9,972.8,696.6,971.4,696.6z"/>
	<path class="st0" d="M982.3,702.9l1.3-2.3c1.3,1.2,2.8,1.8,4.3,1.8c0.9,0,1.6-0.2,2.1-0.6c0.5-0.4,0.7-1,0.7-1.6
		c0-0.9-0.4-1.5-1.1-2c-0.7-0.5-1.5-0.9-2.4-1.3c-0.7-0.3-1.4-0.7-2.1-1c-0.7-0.4-1.2-0.9-1.7-1.4c-0.4-0.6-0.7-1.3-0.7-2.2
		c0-1.4,0.5-2.4,1.5-3.3s2.3-1.3,3.8-1.3c0.8,0,1.6,0.1,2.5,0.3c0.8,0.2,1.5,0.6,2.2,1l-1.2,2.1c-0.7-0.3-1.2-0.6-1.7-0.7
		c-0.5-0.1-1-0.2-1.6-0.2c-0.9,0-1.5,0.2-2,0.5c-0.5,0.3-0.7,0.8-0.7,1.4c0,0.7,0.3,1.2,1,1.6c0.6,0.4,1.4,0.8,2.2,1.2
		c0.7,0.3,1.5,0.7,2.2,1.1c0.7,0.4,1.3,0.9,1.8,1.6c0.5,0.6,0.7,1.4,0.7,2.4c0,1-0.2,1.8-0.7,2.6s-1.2,1.3-2,1.7s-1.8,0.6-2.9,0.6
		c-1,0-1.9-0.2-2.9-0.5C983.9,704,983,703.5,982.3,702.9z M984.7,710.9l0.8-1.2c0.4,0.2,0.8,0.3,1.3,0.3c0.6,0,1.1-0.2,1.6-0.5
		s0.6-0.7,0.6-1.2c0-0.5-0.2-0.8-0.6-1.1s-1-0.4-1.7-0.4l0.9-2.4h1.8l-0.6,1.5c1.5,0.4,2.3,1.3,2.3,2.6c0,0.9-0.4,1.6-1.1,2.2
		c-0.8,0.6-1.7,0.9-2.9,0.9c-0.4,0-0.9,0-1.3-0.1C985.4,711.2,985,711.1,984.7,710.9z"/>
	<path class="st0" d="M1000.2,687.9l0.1,2c0.6-0.7,1.4-1.3,2.3-1.7s1.8-0.6,2.9-0.6c1.2,0,2.4,0.3,3.3,0.9c1,0.6,1.7,1.4,2.3,2.5
		c0.6-1,1.5-1.8,2.5-2.4c1-0.6,2.2-0.9,3.4-0.9c1.3,0,2.4,0.3,3.4,0.9s1.7,1.5,2.3,2.6s0.8,2.4,0.8,3.8v9.7h-2.7v-9.2
		c0-1.2-0.2-2.1-0.6-2.9s-1-1.3-1.6-1.7s-1.4-0.6-2.1-0.6c-0.7,0-1.4,0.2-2.1,0.6c-0.7,0.4-1.2,1-1.7,1.7c-0.4,0.8-0.6,1.7-0.6,2.9
		v9.2h-2.7v-9.2c0-1.2-0.2-2.1-0.6-2.9s-1-1.3-1.6-1.7s-1.4-0.6-2.1-0.6c-0.7,0-1.4,0.2-2.1,0.6s-1.2,1-1.7,1.7
		c-0.4,0.8-0.6,1.7-0.6,2.9v9.2h-2.7v-16.6H1000.2z"/>
	<path class="st0" d="M1028,699.6c0-1.7,0.6-3,1.9-4c1.3-1,3-1.5,5.2-1.5c1.5,0,2.9,0.2,4.4,0.7v-0.2c0-1.4-0.4-2.5-1.2-3.3
		s-1.9-1.2-3.3-1.2c-1.4,0-3,0.5-4.6,1.4l-1-2.3c1.1-0.6,2.1-1,3-1.3c0.9-0.2,1.9-0.4,2.9-0.4c2.1,0,3.8,0.6,5.1,1.9s1.9,3,1.9,5.2
		v9.8h-2.5l-0.1-2.5c-0.6,0.9-1.3,1.6-2.3,2.1c-1,0.5-2.1,0.7-3.3,0.7c-1.8,0-3.3-0.5-4.4-1.5C1028.6,702.4,1028,701.2,1028,699.6z
		 M1035.4,696.6c-1.4,0-2.6,0.3-3.4,0.8c-0.8,0.5-1.2,1.2-1.2,2.2c0,0.8,0.3,1.5,1,2c0.6,0.5,1.5,0.8,2.6,0.8c1,0,1.8-0.2,2.6-0.6
		c0.8-0.4,1.4-1,1.8-1.7c0.5-0.7,0.7-1.5,0.7-2.3v-0.4C1038.2,696.9,1036.8,696.6,1035.4,696.6z"/>
	<path class="st0" d="M1047.2,704.5v-16.6h2.5l0.1,2.5c0.7-0.9,1.5-1.6,2.4-2.1c1-0.5,2-0.8,3.2-0.8c1.3,0,2.5,0.3,3.6,1
		c1,0.6,1.8,1.5,2.4,2.7c0.6,1.1,0.9,2.4,0.9,3.9v9.4h-2.7v-9c0-1.6-0.4-2.9-1.3-3.9s-2-1.5-3.4-1.5c-0.9,0-1.8,0.2-2.5,0.7
		c-0.7,0.5-1.3,1.1-1.8,1.9c-0.4,0.8-0.6,1.7-0.6,2.7v9.2H1047.2z"/>
	<path class="st0" d="M1075.4,681.5c0-0.6,0.2-1,0.5-1.4c0.4-0.4,0.8-0.5,1.4-0.5c0.6,0,1,0.2,1.4,0.5c0.4,0.4,0.5,0.8,0.5,1.4
		c0,0.5-0.2,1-0.5,1.4s-0.8,0.5-1.4,0.5c-0.5,0-1-0.2-1.4-0.5S1075.4,682.1,1075.4,681.5z M1076,704.5v-16.6h2.8v16.6H1076z"/>
	<path class="st0" d="M1097.7,702.4c-0.8,0.8-1.7,1.4-2.7,1.8c-1.1,0.4-2.2,0.6-3.5,0.6c-1.7,0-3.1-0.4-4.4-1.1
		c-1.3-0.7-2.3-1.8-3.1-3.1s-1.1-2.8-1.1-4.4s0.4-3.1,1.1-4.4c0.7-1.3,1.8-2.3,3.1-3.1c1.3-0.7,2.8-1.1,4.4-1.1
		c1.2,0,2.4,0.2,3.5,0.6c1.1,0.4,2,1,2.7,1.8l-1.9,1.9c-0.5-0.6-1.1-1-1.9-1.4s-1.5-0.5-2.4-0.5c-1.1,0-2.1,0.3-3,0.8
		c-0.9,0.5-1.6,1.3-2.1,2.2s-0.8,2-0.8,3.2c0,1.2,0.3,2.2,0.8,3.2s1.2,1.7,2.1,2.2c0.9,0.5,1.9,0.8,3,0.8c0.9,0,1.7-0.2,2.4-0.5
		s1.4-0.8,1.9-1.4L1097.7,702.4z M1087.1,710.9l0.8-1.2c0.4,0.2,0.8,0.3,1.3,0.3c0.6,0,1.1-0.2,1.6-0.5s0.6-0.7,0.6-1.2
		c0-0.5-0.2-0.8-0.6-1.1s-1-0.4-1.7-0.4l0.9-2.4h1.8l-0.6,1.5c1.5,0.4,2.3,1.3,2.3,2.6c0,0.9-0.4,1.6-1.1,2.2
		c-0.8,0.6-1.7,0.9-2.9,0.9c-0.4,0-0.9,0-1.3-0.1C1087.8,711.2,1087.4,711.1,1087.1,710.9z"/>
	<path class="st0" d="M1101.3,681.5c0-0.6,0.2-1,0.5-1.4c0.4-0.4,0.8-0.5,1.4-0.5c0.6,0,1,0.2,1.4,0.5c0.4,0.4,0.5,0.8,0.5,1.4
		c0,0.5-0.2,1-0.5,1.4s-0.8,0.5-1.4,0.5c-0.5,0-1-0.2-1.4-0.5S1101.3,682.1,1101.3,681.5z M1101.9,704.5v-16.6h2.8v16.6H1101.9z"/>
	<path class="st0" d="M1109.9,704.5v-16.6h2.5l0.1,2.5c0.7-0.9,1.5-1.6,2.4-2.1c1-0.5,2-0.8,3.2-0.8c1.3,0,2.5,0.3,3.6,1
		c1,0.6,1.8,1.5,2.4,2.7c0.6,1.1,0.9,2.4,0.9,3.9v9.4h-2.7v-9c0-1.6-0.4-2.9-1.3-3.9s-2-1.5-3.4-1.5c-0.9,0-1.8,0.2-2.5,0.7
		c-0.7,0.5-1.3,1.1-1.8,1.9c-0.4,0.8-0.6,1.7-0.6,2.7v9.2H1109.9z"/>
	<path class="st0" d="M1136.2,684.1v-4.5h19.3v4.5h-7.1v20.4h-5.1v-20.4H1136.2z"/>
	<path class="st0" d="M1162.9,679.6v13.9c0,2.1,0.5,3.8,1.5,5.1c1,1.3,2.4,1.9,4.1,1.9c1.7,0,3-0.6,4.1-1.9c1-1.3,1.5-3,1.5-5.1
		v-13.9h5.1v13.9c0,2.3-0.4,4.3-1.3,6c-0.9,1.7-2.1,3-3.7,4s-3.5,1.4-5.6,1.4c-2.1,0-4-0.5-5.6-1.4s-2.8-2.3-3.7-4
		c-0.9-1.7-1.3-3.7-1.3-6v-13.9H1162.9z M1162.6,674.1c0-0.7,0.2-1.3,0.6-1.7c0.4-0.4,1-0.6,1.7-0.6s1.3,0.2,1.7,0.6
		c0.4,0.4,0.6,1,0.6,1.7s-0.2,1.3-0.6,1.7s-1,0.6-1.7,0.6s-1.3-0.2-1.7-0.6S1162.6,674.8,1162.6,674.1z M1169.4,674.1
		c0-0.7,0.2-1.3,0.6-1.7c0.4-0.4,1-0.6,1.7-0.6s1.3,0.2,1.7,0.6c0.4,0.4,0.6,1,0.6,1.7s-0.2,1.3-0.6,1.7s-1,0.6-1.7,0.6
		s-1.3-0.2-1.7-0.6S1169.4,674.8,1169.4,674.1z"/>
	<path class="st0" d="M1183.4,704.5v-24.9h6.6l5.5,11.7c0.3,0.6,0.5,1.3,0.8,1.9c0.2,0.6,0.5,1.3,0.7,2c0.2-0.7,0.5-1.3,0.7-2
		s0.5-1.3,0.8-1.9l5.5-11.7h6.5v24.9h-5.1c0-3,0-6,0.1-8.9c0.1-2.9,0.2-5.8,0.3-8.7c-0.3,0.8-0.6,1.5-0.9,2.3s-0.6,1.5-1,2.2l-4.2,9
		h-5.6l-4.2-9c-0.3-0.8-0.7-1.7-1-2.5c-0.3-0.8-0.6-1.6-0.9-2.4c0.1,1.9,0.2,3.8,0.3,5.6c0.1,1.8,0.1,3.7,0.1,5.7c0,2,0,4.2,0,6.7
		H1183.4z"/>
	<path class="st0" d="M1227.5,704.5h-5.1v-24.9h5.1v11.1c0.4-0.6,0.8-1.2,1.2-1.9c0.4-0.6,0.9-1.3,1.4-2.1l6-7.2h6.5l-8.9,10.6
		l10.3,14.3h-6.8l-7.2-9.9l-2.6,3.1V704.5z"/>
	<path class="st0" d="M1244.1,704.5l9.7-24.9h5.7l9.7,24.9h-5.4l-2.1-5.6h-10.1l-2.1,5.6H1244.1z M1260,694.5
		c-0.7-1.9-1.3-3.7-1.8-5.2c-0.5-1.5-1.1-3.1-1.6-4.8c-0.5,1.6-1.1,3.2-1.6,4.8s-1.1,3.3-1.8,5.2H1260z"/>
	<path class="st0" d="M1271.3,679.6h5.1V690h10.9v-10.4h5.1v24.9h-5.1v-10h-10.9v10h-5.1V679.6z"/>
	<path class="st0" d="M1295.1,679.6h5.4c0.7,1.6,1.3,3,1.8,4.3s1.1,2.6,1.6,3.8s1,2.5,1.6,3.8c0.5,1.3,1.1,2.8,1.7,4.4
		c0.2,0.4,0.3,0.9,0.4,1.3c0.1,0.4,0.3,0.8,0.4,1.2c0.1-0.4,0.2-0.8,0.4-1.2c0.1-0.4,0.3-0.8,0.4-1.3c0.6-1.6,1.1-3.1,1.7-4.4
		c0.5-1.3,1-2.6,1.6-3.8s1.1-2.5,1.6-3.8s1.2-2.7,1.8-4.3h5.4l-10.2,24.9h-5.3L1295.1,679.6z"/>
	<path class="st0" d="M1323.4,679.6h14.8v4.5H1328v5.4h9.6v4.5h-9.6v6.1h10.8v4.5h-15.3V679.6z"/>
	<path class="st0" d="M1371.4,701.4c-1.2,1.1-2.5,2-4.1,2.7c-1.6,0.7-3.3,1-5.2,1c-1.9,0-3.6-0.3-5.2-1s-2.9-1.5-4.1-2.7
		s-2.1-2.5-2.7-4.1c-0.6-1.6-1-3.3-1-5.2c0-1.9,0.3-3.6,1-5.2c0.6-1.6,1.5-2.9,2.7-4.1s2.5-2.1,4.1-2.7c1.6-0.6,3.3-1,5.2-1
		c1.9,0,3.6,0.3,5.2,1c1.6,0.6,2.9,1.5,4.1,2.7l-3.5,3.5c-0.7-0.8-1.5-1.5-2.5-2c-1-0.5-2.1-0.7-3.3-0.7c-1.5,0-2.8,0.4-4,1.1
		c-1.2,0.7-2.1,1.7-2.8,3c-0.7,1.3-1,2.7-1,4.4s0.3,3.1,1,4.3c0.7,1.3,1.6,2.3,2.8,3c1.2,0.7,2.5,1.1,4,1.1c1.2,0,2.3-0.2,3.3-0.7
		s1.8-1.1,2.5-2L1371.4,701.4z M1358.3,710c0.6,0.3,1.1,0.4,1.6,0.4c0.5,0,0.8-0.1,1.1-0.3s0.5-0.4,0.5-0.8c0-0.3-0.2-0.6-0.6-0.9
		s-1-0.4-1.8-0.4l0.2-0.5h0l1.1-3h2.9l-1.1,2.1c0.7,0.2,1.3,0.6,1.6,1.1c0.3,0.5,0.5,1,0.5,1.6c0,1-0.4,1.8-1.2,2.5
		c-0.8,0.6-1.8,1-3,1c-1.2,0-2.2-0.2-3-0.7L1358.3,710z"/>
	<path class="st0" d="M1374.8,679.6h14.8v4.5h-10.3v5.4h9.6v4.5h-9.6v6.1h10.8v4.5h-15.3V679.6z"/>
	<path class="st0" d="M1402,700.5c1,0,1.9-0.3,2.6-0.8s1-1.3,1-2.1c0-0.7-0.2-1.2-0.7-1.7s-1-0.9-1.8-1.3s-1.5-0.7-2.4-1.1
		c-0.8-0.4-1.7-0.7-2.5-1.2c-0.8-0.4-1.6-0.9-2.3-1.5c-0.7-0.6-1.3-1.2-1.7-2s-0.6-1.8-0.6-2.9c0-1.4,0.3-2.6,1-3.6s1.7-1.8,2.9-2.4
		c1.3-0.6,2.7-0.9,4.4-0.9c2.7,0,5.2,0.7,7.7,2l-2.1,4.2c-1.1-0.7-2.1-1.2-3.1-1.4c-1-0.2-1.8-0.4-2.5-0.4c-1,0-1.8,0.2-2.4,0.6
		c-0.6,0.4-0.9,1-0.9,1.7c0,0.6,0.2,1.1,0.6,1.5c0.4,0.4,1,0.8,1.7,1.1s1.4,0.7,2.3,1c0.9,0.4,1.7,0.7,2.6,1.2
		c0.9,0.4,1.7,0.9,2.4,1.5c0.7,0.6,1.3,1.3,1.8,2.1s0.7,1.8,0.7,3c0,1.5-0.4,2.8-1.1,4c-0.8,1.2-1.8,2.1-3.2,2.7
		c-1.3,0.7-2.9,1-4.6,1c-1.6,0-3.2-0.3-4.8-0.9c-1.6-0.6-3.1-1.4-4.4-2.4l2.4-4.1c0.6,0.5,1.3,1,2.1,1.5c0.8,0.4,1.6,0.8,2.5,1
		C1400.5,700.4,1401.3,700.5,1402,700.5z M1399.1,710c0.6,0.3,1.1,0.4,1.6,0.4c0.5,0,0.8-0.1,1.1-0.3s0.5-0.4,0.5-0.8
		c0-0.3-0.2-0.6-0.6-0.9s-1-0.4-1.8-0.4l0.2-0.5h0l1.1-3h2.9l-1.1,2.1c0.7,0.2,1.3,0.6,1.6,1.1c0.3,0.5,0.5,1,0.5,1.6
		c0,1-0.4,1.8-1.2,2.5c-0.8,0.6-1.8,1-3,1c-1.2,0-2.2-0.2-3-0.7L1399.1,710z"/>
	<path class="st0" d="M1413.8,673.1c0-0.8,0.2-1.4,0.7-1.9c0.5-0.5,1.1-0.7,1.9-0.7s1.4,0.2,1.9,0.7c0.5,0.5,0.7,1.1,0.7,1.9
		s-0.2,1.4-0.7,1.9c-0.5,0.5-1.1,0.7-1.9,0.7s-1.4-0.2-1.9-0.7C1414,674.5,1413.8,673.9,1413.8,673.1z M1419,679.6v24.9h-5.1v-24.9
		H1419z"/>
	<path class="st0" d="M1420.8,684.1v-4.5h19.3v4.5h-7.1v20.4h-5.1v-20.4H1420.8z"/>
	<path class="st0" d="M1458.1,704.5h-15.7v-24.9h5.1V700h10.6V704.5z"/>
	<path class="st0" d="M1461.6,679.6h14.8v4.5h-10.3v5.4h9.6v4.5h-9.6v6.1h10.8v4.5h-15.3V679.6z"/>
	<path class="st0" d="M1481.1,679.6h8.5c3,0,5.4,0.7,7.1,2.1c1.7,1.4,2.6,3.2,2.6,5.6c0,1.7-0.4,3.1-1.3,4.3
		c-0.9,1.2-2.1,2.1-3.8,2.7l5.9,10.2h-5.7l-5.5-9.5h-2.6v9.5h-5.1V679.6z M1488.9,690.8c1.7,0,2.9-0.3,3.8-0.9s1.3-1.5,1.3-2.5
		c0-1.1-0.4-1.9-1.3-2.5c-0.9-0.6-2.1-0.9-3.8-0.9h-2.8v6.9H1488.9z"/>
	<path class="st0" d="M1502.2,673.1c0-0.8,0.2-1.4,0.7-1.9c0.5-0.5,1.1-0.7,1.9-0.7s1.4,0.2,1.9,0.7c0.5,0.5,0.7,1.1,0.7,1.9
		s-0.2,1.4-0.7,1.9c-0.5,0.5-1.1,0.7-1.9,0.7s-1.4-0.2-1.9-0.7C1502.4,674.5,1502.2,673.9,1502.2,673.1z M1507.4,679.6v24.9h-5.1
		v-24.9H1507.4z"/>
	<path class="st0" d="M1516.8,684.1v-4.5h19.3v4.5h-7.1v20.4h-5.1v-20.4H1516.8z"/>
	<path class="st0" d="M1538.4,679.6h14.8v4.5H1543v5.4h9.6v4.5h-9.6v6.1h10.8v4.5h-15.3V679.6z"/>
	<path class="st0" d="M1563,704.5h-5.1v-24.9h5.1v11.1c0.4-0.6,0.8-1.2,1.2-1.9c0.4-0.6,0.9-1.3,1.4-2.1l6-7.2h6.5l-8.9,10.6
		l10.3,14.3h-6.8l-7.2-9.9l-2.6,3.1V704.5z"/>
	<path class="st0" d="M1589.4,679.6h15.3v4.5h-10.3v5.4h9.6v4.5h-9.6v10.6h-5.1V679.6z"/>
	<path class="st0" d="M1607.9,673.1c0-0.8,0.2-1.4,0.7-1.9s1.1-0.7,1.9-0.7s1.4,0.2,1.9,0.7s0.7,1.1,0.7,1.9s-0.2,1.4-0.7,1.9
		s-1.1,0.7-1.9,0.7s-1.4-0.2-1.9-0.7S1607.9,673.9,1607.9,673.1z M1613.1,679.6v24.9h-5.1v-24.9H1613.1z"/>
	<path class="st0" d="M1614.5,679.6h5.5l6.3,10.4l6-10.4h5.6l-9,15.2v9.7h-5.1v-9.7L1614.5,679.6z"/>
	<path class="st0" d="M1635.3,704.5l9.7-24.9h5.7l9.7,24.9h-5.4l-2.1-5.6h-10.1l-2.1,5.6H1635.3z M1651.2,694.5
		c-0.7-1.9-1.3-3.7-1.8-5.2s-1.1-3.1-1.6-4.8c-0.5,1.6-1.1,3.2-1.6,4.8c-0.5,1.5-1.1,3.3-1.8,5.2H1651.2z"/>
	<path class="st0" d="M1658.9,684.1v-4.5h19.3v4.5h-7.1v20.4h-5.1v-20.4H1658.9z"/>
	<path class="st0" d="M1677.9,702.2c0-0.8,0.2-1.4,0.7-1.9c0.5-0.5,1.1-0.7,1.9-0.7s1.4,0.2,1.9,0.7c0.5,0.5,0.7,1.1,0.7,1.9
		s-0.2,1.4-0.7,1.9s-1.1,0.7-1.9,0.7s-1.4-0.2-1.9-0.7S1677.9,703,1677.9,702.2z"/>
</g>
</svg>
