<svg xmlns="http://www.w3.org/2000/svg" width="349.394" height="116.086" viewBox="0 0 349.394 116.086"><g transform="translate(-246.248 -239.597)"><path d="M423.1,259.849v28.535h20.266v17.837H423.1v49.462h-17.83V242.017h47.014v17.832Z" fill="#fff"/><path d="M273.166,355.683q-11.352,0-18.81-6.648-8.112-8.106-8.108-21.24V267.482q0-13.133,8.108-21.237,7.461-6.651,18.81-6.648,11.672,0,18.8,6.648,8.111,7.781,8.108,21.237v10.051H282.24V267.482q0-6-2.267-8.1-2.11-1.946-6.807-1.947-4.54,0-6.652,1.947-2.43,2.271-2.43,8.1V327.8q0,5.841,2.43,8.108,2.11,1.945,6.652,1.947,4.7,0,6.807-1.947,2.271-2.1,2.267-8.108V313.2h17.837V327.8q0,13.462-8.108,21.24Q284.838,355.686,273.166,355.683Z" fill="#fff"/><path d="M349.692,355.683q-11.671,0-18.81-6.648-8.112-7.781-8.108-21.24V267.482q0-13.452,8.108-21.237,7.131-6.651,18.81-6.648t18.8,6.648q8.111,7.781,8.108,21.237V327.8q0,13.462-8.108,21.24Q361.364,355.686,349.692,355.683Zm0-98.253q-4.54,0-6.652,1.947-2.43,2.271-2.43,8.1V327.8q0,5.841,2.43,8.108,2.11,1.945,6.652,1.947,4.7,0,6.644-1.947,2.43-2.1,2.43-8.108V267.482q0-6-2.43-8.1Q354.4,257.431,349.692,257.43Z" fill="#fff"/><path d="M490.962,259.849v28.535h20.267v17.837H490.962v27.961H473.133V242.017h47.014v17.832Z" fill="#fff"/><path d="M573.592,314.5v39.883h-18V314.5l-21.887-73.609h18.81l11.995,40.693,12.322-40.693h18.81Z" fill="#fff"/></g></svg>